<svg width="23" height="23" viewBox="0 0 23 23" fill="none" xmlns="http://www.w3.org/2000/svg">
<circle cx="11.5" cy="11.5" r="11.5" fill="white" fill-opacity="0.8"/>
<path d="M11.5003 15.467V5.5C11.5003 5.36739 11.4476 5.24021 11.3539 5.14645C11.2601 5.05268 11.1329 5 11.0003 5C10.8677 5 10.7405 5.05268 10.6468 5.14645C10.553 5.24021 10.5003 5.36739 10.5003 5.5V15.467L6.85431 11.593C6.80934 11.5439 6.75465 11.5047 6.6937 11.4778C6.63276 11.451 6.5669 11.4372 6.50031 11.4372C6.43373 11.4372 6.36787 11.451 6.30692 11.4778C6.24598 11.5047 6.19128 11.5439 6.14631 11.593C6.05222 11.6954 6 11.8294 6 11.9685C6 12.1076 6.05222 12.2416 6.14631 12.344L10.6463 17.126C10.6913 17.1751 10.746 17.2143 10.8069 17.2412C10.8679 17.268 10.9337 17.2818 11.0003 17.2818C11.0669 17.2818 11.1328 17.268 11.1937 17.2412C11.2546 17.2143 11.3093 17.1751 11.3543 17.126L15.8543 12.344C15.9481 12.2416 16.0002 12.1078 16.0002 11.969C16.0002 11.8302 15.9481 11.6964 15.8543 11.594C15.8093 11.5449 15.7546 11.5057 15.6937 11.4788C15.6328 11.452 15.5669 11.4382 15.5003 11.4382C15.4337 11.4382 15.3679 11.452 15.3069 11.4788C15.246 11.5057 15.1913 11.5449 15.1463 11.594L11.5003 15.466V15.467Z" fill="#1D1E1B"/>
</svg>
