<svg width="11" height="10" viewBox="0 0 11 10" fill="none" xmlns="http://www.w3.org/2000/svg">
<path d="M5.5 0C4.84339 0 4.19321 0.13254 3.58658 0.390052C2.97995 0.647563 2.42876 1.025 1.96447 1.50082C1.02678 2.46179 0.5 3.76513 0.5 5.12414C0.5 7.389 1.935 9.31055 3.92 9.99206C4.17 10.0331 4.25 9.87421 4.25 9.73586V8.86988C2.865 9.17733 2.57 8.18324 2.57 8.18324C2.34 7.58884 2.015 7.43 2.015 7.43C1.56 7.1123 2.05 7.12255 2.05 7.12255C2.55 7.15842 2.815 7.65033 2.815 7.65033C3.25 8.4292 3.985 8.19862 4.27 8.07564C4.315 7.74257 4.445 7.51711 4.585 7.389C3.475 7.2609 2.31 6.82022 2.31 4.86793C2.31 4.29915 2.5 3.8431 2.825 3.47929C2.775 3.35118 2.6 2.81827 2.875 2.12652C2.875 2.12652 3.295 1.98816 4.25 2.64918C4.645 2.53645 5.075 2.48008 5.5 2.48008C5.925 2.48008 6.355 2.53645 6.75 2.64918C7.705 1.98816 8.125 2.12652 8.125 2.12652C8.4 2.81827 8.225 3.35118 8.175 3.47929C8.5 3.8431 8.69 4.29915 8.69 4.86793C8.69 6.82535 7.52 7.25578 6.405 7.38388C6.585 7.54273 6.75 7.8553 6.75 8.33184V9.73586C6.75 9.87421 6.83 10.0382 7.085 9.99206C9.07 9.30543 10.5 7.389 10.5 5.12414C10.5 4.45122 10.3707 3.7849 10.1194 3.16321C9.86812 2.54152 9.49983 1.97664 9.03553 1.50082C8.57124 1.025 8.02005 0.647563 7.41342 0.390052C6.80679 0.13254 6.15661 0 5.5 0Z" fill="#1D1E1B"/>
</svg>
