<svg width="11" height="10" viewBox="0 0 11 10" fill="none" xmlns="http://www.w3.org/2000/svg">
<path d="M3.4 0H7.6C9.2 0 10.5 1.3 10.5 2.9V7.1C10.5 7.86913 10.1945 8.60675 9.65061 9.15061C9.10675 9.69447 8.36913 10 7.6 10H3.4C1.8 10 0.5 8.7 0.5 7.1V2.9C0.5 2.13087 0.805535 1.39325 1.34939 0.84939C1.89325 0.305535 2.63087 0 3.4 0ZM3.3 1C2.82261 1 2.36477 1.18964 2.02721 1.52721C1.68964 1.86477 1.5 2.32261 1.5 2.8V7.2C1.5 8.195 2.305 9 3.3 9H7.7C8.17739 9 8.63523 8.81036 8.97279 8.47279C9.31036 8.13523 9.5 7.67739 9.5 7.2V2.8C9.5 1.805 8.695 1 7.7 1H3.3ZM8.125 1.75C8.29076 1.75 8.44973 1.81585 8.56694 1.93306C8.68415 2.05027 8.75 2.20924 8.75 2.375C8.75 2.54076 8.68415 2.69973 8.56694 2.81694C8.44973 2.93415 8.29076 3 8.125 3C7.95924 3 7.80027 2.93415 7.68306 2.81694C7.56585 2.69973 7.5 2.54076 7.5 2.375C7.5 2.20924 7.56585 2.05027 7.68306 1.93306C7.80027 1.81585 7.95924 1.75 8.125 1.75ZM5.5 2.5C6.16304 2.5 6.79893 2.76339 7.26777 3.23223C7.73661 3.70107 8 4.33696 8 5C8 5.66304 7.73661 6.29893 7.26777 6.76777C6.79893 7.23661 6.16304 7.5 5.5 7.5C4.83696 7.5 4.20107 7.23661 3.73223 6.76777C3.26339 6.29893 3 5.66304 3 5C3 4.33696 3.26339 3.70107 3.73223 3.23223C4.20107 2.76339 4.83696 2.5 5.5 2.5ZM5.5 3.5C5.10218 3.5 4.72064 3.65804 4.43934 3.93934C4.15804 4.22064 4 4.60218 4 5C4 5.39782 4.15804 5.77936 4.43934 6.06066C4.72064 6.34196 5.10218 6.5 5.5 6.5C5.89782 6.5 6.27936 6.34196 6.56066 6.06066C6.84196 5.77936 7 5.39782 7 5C7 4.60218 6.84196 4.22064 6.56066 3.93934C6.27936 3.65804 5.89782 3.5 5.5 3.5Z" fill="#1D1E1B"/>
</svg>
