<svg width="898" height="278" viewBox="0 0 898 278" fill="none" xmlns="http://www.w3.org/2000/svg">
<g clip-path="url(#clip0_250_1854)">
<path d="M387.954 264.715C533.53 235.217 756.41 26.0145 900.48 -0.561687C748.601 24.9011 657.016 44.5858 561.137 84.7169C389.283 156.648 132.484 234.341 -0.240762 251.148C110.004 267.173 242.378 294.213 387.954 264.715Z" fill="#B1F07A"/>
<path d="M387.954 264.715C533.53 235.217 756.41 26.0145 900.48 -0.561687C748.601 24.9011 657.016 44.5858 561.137 84.7169C389.283 156.648 132.484 234.341 -0.240762 251.148C110.004 267.173 242.378 294.213 387.954 264.715Z" fill="black" fill-opacity="0.2"/>
<path d="M333.234 56.2137C238.07 83.0723 175.671 137.687 119.389 176.211C71.8815 208.729 39.0716 234.21 -0.240762 251.148C132.484 234.341 389.283 156.648 561.137 84.7169C657.016 44.5858 748.601 24.9011 900.48 -0.561687C820.162 7.22018 772.828 11.0067 695.669 14.7185C605.223 19.0696 508.727 6.68382 333.234 56.2137Z" fill="#B1F07A"/>
<mask id="mask0_250_1854" style="mask-type:alpha" maskUnits="userSpaceOnUse" x="0" y="-1" width="901" height="279">
<path d="M388.199 264.283C533.776 234.783 756.658 25.578 900.729 -1C748.849 24.4647 657.265 44.1506 561.385 84.2829C389.53 156.216 132.729 233.912 0.00390625 250.722C110.249 266.745 242.622 293.783 388.199 264.283Z" fill="#B1F07A"/>
</mask>
<g mask="url(#mask0_250_1854)">
<g filter="url(#filter0_f_250_1854)">
<path d="M376.32 149.114C388.156 145.085 399.743 141.338 411.452 137.53C411.452 137.53 411.452 137.53 411.452 137.53C418.052 135.384 424.658 133.165 431.289 130.856C435.223 129.485 439.183 128.076 443.148 126.63C445.757 125.677 448.378 124.709 451.002 123.731C457.527 121.297 464.064 118.8 470.596 116.273C477.109 113.754 483.626 111.201 490.129 108.645C496.646 106.085 503.15 103.521 509.651 100.973C515.29 98.7631 520.929 96.5636 526.548 94.3952C527.438 94.0517 528.318 93.7118 529.186 93.3762C534.415 91.3544 539.621 89.2798 544.84 87.1742C550.053 85.0711 555.263 82.9425 560.479 80.8134C565.695 78.6848 570.916 76.5555 576.153 74.4485C581.389 72.342 586.643 70.2568 591.917 68.2235C597.2 66.1869 602.5 64.202 607.842 62.3026C608.316 62.1341 608.789 61.9666 609.262 61.8003C614.129 60.0869 619.082 58.4307 624.009 56.922C624.009 56.922 624.009 56.922 624.009 56.922C630.143 55.0438 636.305 53.2202 642.469 51.4507C648.634 49.6808 654.815 47.9602 661 46.2775C667.178 44.5963 673.38 42.9472 679.571 41.3236C684.693 39.9803 689.797 38.6571 694.926 37.3349C696.013 37.0547 697.08 36.7805 698.168 36.5006C704.364 34.9076 710.574 33.3205 716.768 31.7388C722.991 30.1495 729.154 28.5774 735.38 26.9845C735.38 26.9845 735.38 26.9845 735.38 26.9845C743.871 24.811 752.412 22.8498 760.982 21.0861C767.825 19.6764 774.695 18.3898 781.565 17.1945C783.301 16.8925 785.038 16.5958 786.773 16.3046C795.389 14.8574 804.021 13.5292 812.647 12.216C821.27 10.904 829.901 9.60123 838.507 8.22764C839.398 8.08556 840.292 7.94208 841.19 7.79709C848.9 6.55396 856.626 5.2425 864.295 3.84831C865.272 3.67083 866.254 3.49076 867.242 3.30797C873.724 2.10987 880.142 0.8579 886.598 -0.47278C887.492 -0.656833 888.362 -0.800668 889.014 -0.868615C889.666 -0.936404 890.048 -0.923159 890.069 -0.825717C890.09 -0.7284 889.747 -0.552874 889.125 -0.337944C888.502 -0.123257 887.65 0.112805 886.761 0.319342C880.278 1.82246 873.839 3.24456 867.318 4.61504C866.393 4.8095 865.472 5.00157 864.557 5.19136C858.251 6.49866 851.957 7.74068 845.621 8.94145C844.393 8.74404 842.808 8.71037 839.82 9.08919C839.471 9.13328 839.086 9.18559 838.682 9.24413C837.344 9.43764 835.742 9.70764 834.515 9.97519C833.081 10.2879 832.019 10.59 830.993 10.88C829.927 11.182 828.92 11.4673 827.609 11.7269C825.354 12.1726 823.279 12.6916 821.047 13.2444C820.241 13.4445 819.423 13.6478 818.581 13.8513C816.737 14.1771 814.913 14.4994 813.077 14.8242C807.986 15.7248 802.894 16.6297 797.814 17.5591C795.133 17.9731 792.667 18.3669 790.588 18.7519C789.453 18.962 788.381 19.1895 787.336 19.4292C786.663 19.5836 786.003 19.7427 785.344 19.9057C784.278 20.113 783.209 20.3229 782.145 20.5339C775.345 21.8816 768.558 23.3156 761.806 24.8675C761.732 24.8846 761.657 24.9018 761.582 24.919C756.219 25.9828 750.608 27.16 743.383 28.9392C740.984 29.532 738.69 30.0913 736.367 30.6698C736.366 30.6699 736.367 30.6698 736.367 30.6699C735.634 30.8523 734.91 31.0317 734.198 31.2084C729.817 32.294 725.692 33.3145 722.112 34.3309C720.7 34.7319 719.261 35.105 717.767 35.4789C716.723 35.74 715.702 35.9879 714.639 36.247C711.246 37.0732 707.849 37.9007 704.82 38.8738C702.923 39.4836 701.185 40.0736 699.579 40.6197C699.485 40.6517 699.391 40.6834 699.298 40.715C696.865 41.5428 694.703 42.2738 692.733 42.8152C688.876 43.8752 685.548 44.9108 682.639 45.8213C682.057 46.0032 681.492 46.1799 680.943 46.3508C678.163 47.2171 675.751 47.9451 673.54 48.4481C673.14 48.5391 672.687 48.6384 672.165 48.7534C669.975 49.2351 666.743 49.9467 662.383 51.1794C661.307 51.4839 660.175 51.8164 658.964 52.1882C656.788 52.856 654.763 53.564 652.787 54.2599C649.935 55.2646 647.164 56.2497 644.138 57.0743C644.111 57.0816 644.084 57.089 644.057 57.0963C643.6 57.2203 643.113 57.3162 642.669 57.4035C642.105 57.5145 641.613 57.612 641.341 57.7366C640.544 58.1023 639.263 58.6277 637.873 59.2017C636.853 59.6232 635.77 60.0721 634.779 60.5008C631.857 61.4215 628.943 62.3525 626.021 63.2997C626.021 63.2997 626.02 63.2998 626.02 63.2998C621.156 64.8773 616.367 66.5644 611.555 68.3417C611.112 68.5056 610.667 68.6705 610.222 68.8365C607.16 69.9782 604.095 71.1537 601.046 72.3481C599.191 72.8627 597.294 73.4217 595.317 74.063C595.004 74.1648 594.678 74.2736 594.344 74.3869C591.919 75.2118 588.923 76.3549 585.202 77.799C583.214 78.5706 581.015 79.4297 578.582 80.3729C577.203 80.9073 575.749 81.4689 574.216 82.0566C570.344 83.5408 566.445 85.1146 562.879 86.5936C559.215 88.113 555.903 89.5307 553.328 90.6561C552.257 91.1244 551.172 91.5996 550.019 92.1041C549.18 92.4713 548.289 92.8602 547.339 93.2736C543.682 94.8594 539.012 96.8845 531.727 99.8611C531.07 100.129 530.383 100.409 529.667 100.7C523.178 103.335 517.306 105.663 512.232 107.655C509.547 108.709 507.072 109.673 504.866 110.531C501.611 111.797 498.901 112.847 496.828 113.662C495.534 114.171 494.141 114.717 492.664 115.294C490.107 116.292 487.331 117.369 484.547 118.446C480.537 119.998 476.508 121.549 473.075 122.874C470.643 123.813 468.512 124.637 466.895 125.272C465.509 125.815 464.051 126.391 462.48 127.009C459.888 128.03 456.971 129.175 453.5 130.511C451.132 131.421 448.511 132.418 445.564 133.521C440.762 135.316 437.075 136.644 433.776 137.794C431.804 138.481 429.966 139.106 428.101 139.73C426.059 140.412 424.249 140.885 422.337 141.385C419.779 142.049 417.083 142.747 413.653 143.966C413.653 143.966 413.653 143.966 413.653 143.966C413.5 144.02 413.345 144.076 413.189 144.132C412.326 144.445 411.415 144.795 410.466 145.161C408.715 145.834 406.871 146.545 404.894 147.183C404.203 147.406 403.587 147.571 402.984 147.733C402.32 147.911 401.671 148.085 400.954 148.326C398.307 149.218 395.643 150.134 393.34 150.925C390.393 151.938 387.825 152.818 386.271 153.304C383.51 154.168 380.433 155.268 377.401 156.352C377.292 156.391 377.183 156.43 377.075 156.469C374.857 157.261 372.578 158.07 370.4 158.791C363.811 160.972 354.816 164.087 345.527 167.331C343.777 167.943 342.175 168.46 340.495 168.977C338.799 169.499 337.064 170.005 335.121 170.57C332.696 171.277 329.968 172.067 326.565 173.094C324.635 173.676 323.045 174.276 321.569 174.831C320.204 175.345 318.94 175.819 317.612 176.201C316.44 176.538 315.665 176.632 314.923 176.723C314.099 176.824 313.323 176.918 312.107 177.332C311.461 177.552 310.691 177.871 309.776 178.249C309.414 178.399 309.029 178.558 308.618 178.724C308.631 178.69 308.628 178.663 308.623 178.644C308.582 178.509 307.309 178.832 306.061 179.147C305.563 179.273 305.067 179.398 304.657 179.492C304.293 179.576 303.854 179.689 303.368 179.821C301.839 180.238 299.836 180.851 298.218 181.357C297.316 181.639 296.485 181.85 295.515 182.097C294.654 182.315 293.683 182.561 292.455 182.908C291.755 183.106 291.209 183.231 290.757 183.334C290.43 183.408 290.152 183.471 289.897 183.544C289.677 183.606 289.513 183.699 289.327 183.803C289.194 183.878 289.05 183.959 288.866 184.039C288.427 184.231 287.847 184.426 287.432 184.534C287.24 184.584 287.085 184.615 286.932 184.645C286.753 184.681 286.576 184.716 286.336 184.782C285.237 185.086 284.189 185.453 283.099 185.833C281.903 186.251 280.658 186.685 279.238 187.07C278.791 187.192 278.31 187.306 277.845 187.416C277.357 187.532 276.883 187.644 276.485 187.756C274.875 188.207 273.398 188.754 272.034 189.257C271.128 189.591 270.267 189.908 269.464 190.16C267.993 190.623 267.231 190.974 266.669 191.233C266.595 191.267 266.525 191.3 266.456 191.331C266.256 191.422 266.075 191.5 265.883 191.565C265.643 191.633 265.4 191.7 265.161 191.766C264.941 191.822 264.713 191.88 264.502 191.945C264.486 191.95 264.47 191.955 264.455 191.96C263.108 192.326 261.81 192.665 260.5 193.006C257.554 193.773 254.667 194.518 251.632 195.451C250.979 195.651 250.318 195.895 249.654 196.139C248.843 196.437 248.012 196.743 247.144 196.988C245.079 197.57 242.938 198.098 240.88 198.6C237.751 199.366 234.688 200.109 231.947 201.017C231.039 201.318 230.157 201.64 229.271 201.964C229.271 201.964 229.271 201.964 229.27 201.964C228.781 202.143 228.294 202.322 227.798 202.498C227.887 202.404 227.928 202.329 227.965 202.258C228.043 202.113 228.11 201.988 228.571 201.769C228.759 201.68 228.948 201.588 229.138 201.494C230.054 201.042 230.872 200.581 230.705 200.451C230.651 200.409 230.666 200.34 230.684 200.27C230.729 200.094 230.776 199.915 229.68 200.147C229.47 200.192 229.167 200.257 228.814 200.339C227.934 200.54 226.744 200.839 225.923 201.158C225.674 201.255 225.531 201.348 225.373 201.453C225.088 201.64 224.749 201.861 223.635 202.202C223.448 202.259 223.243 202.32 223.032 202.383C222.186 202.636 221.243 202.916 220.919 203.093C220.54 203.297 220.656 203.379 220.791 203.474C220.966 203.598 221.176 203.746 220.368 204.217C220.208 204.311 219.882 204.418 219.636 204.499C219.463 204.556 219.33 204.6 219.32 204.617C219.31 204.637 219.375 204.654 219.458 204.676C219.75 204.752 220.261 204.885 218.432 205.403C217.936 205.543 217.364 205.688 216.85 205.819C216.093 206.011 215.461 206.17 215.389 206.235C215.362 206.26 215.344 206.283 215.33 206.306C214.721 206.469 214.139 206.624 213.541 206.783C212.766 206.943 211.696 207.241 210.352 207.616C210.026 207.707 209.682 207.802 209.323 207.901C208.133 208.216 206.944 208.53 205.776 208.838C204.841 209.07 203.839 209.306 202.771 209.538C200.623 210.004 198.744 210.32 196.921 210.623C196.149 210.752 195.382 210.88 194.604 211.018C194.898 210.929 195.162 210.848 195.364 210.779C196.743 210.308 197.253 209.975 197.723 209.669C198.035 209.465 198.33 209.273 198.845 209.061C199.785 208.673 199.66 208.552 199.555 208.466C199.502 208.42 199.461 208.383 199.586 208.32C199.687 208.269 199.93 208.192 200.181 208.113C200.4 208.044 200.626 207.972 200.768 207.915C202.481 207.222 201.914 207.244 201.093 207.275C200.639 207.292 200.108 207.312 199.836 207.217C199.593 207.104 199.647 207.038 200.558 206.719C199.817 206.832 199.054 206.951 198.326 207.06C198.048 207.141 197.85 207.25 197.574 207.416C197.083 207.713 195.357 208.239 193.997 208.653C193.367 208.844 192.817 209.011 192.51 209.119C190.875 209.692 191.406 209.735 191.875 209.772C192.133 209.793 192.371 209.812 192.218 209.917C192.153 209.962 192.263 209.96 192.373 209.958C192.459 209.956 192.546 209.954 192.555 209.974C192.6 210.078 192.134 210.297 191.542 210.541C191.299 210.642 191.034 210.746 190.776 210.848C190.271 211.048 189.789 211.239 189.531 211.372C189.453 211.413 189.391 211.45 189.334 211.485C189.25 211.536 189.168 211.585 189.035 211.644C188.732 211.778 188.091 211.984 187.388 212.21C187.025 212.326 186.647 212.447 186.29 212.566C185.828 212.72 185.675 212.825 185.514 212.935C185.399 213.012 185.279 213.093 185.046 213.194C184.624 213.378 183.748 213.635 182.927 213.874C182.569 213.978 182.223 214.079 181.933 214.168C181.815 214.204 181.761 214.23 181.752 214.247C180.407 214.648 179.137 215.029 177.882 215.403C175.324 216.165 172.891 216.883 170.361 217.588C166.717 218.603 162.834 219.604 157.983 220.686C156.423 221.034 154.77 221.438 153.089 221.864C151.631 222.195 150.175 222.524 148.714 222.852C144.777 223.734 140.835 224.603 136.895 225.457C135.797 225.564 134.469 225.745 132.902 226.006C130.958 226.329 128.99 226.717 126.858 227.157C125.768 227.382 124.634 227.621 123.44 227.872C120.828 228.421 117.922 229.028 114.521 229.675C111.432 230.262 108.299 230.862 105.03 231.502C102.253 232.046 99.3808 232.619 96.3529 233.238C92.0922 234.108 87.4299 235.07 83.2331 235.943C80.9625 236.416 78.8235 236.864 76.961 237.257C74.0622 237.869 71.0013 238.398 68.1453 238.893C65.6418 239.327 63.3195 239.73 61.3858 240.142C60.2252 240.389 59.1927 240.631 58.3725 240.879C57.6832 241.087 57.0373 241.335 56.385 241.579C55.9371 241.75 55.4887 241.917 55.0402 242.063C53.8306 242.271 52.6004 242.476 51.3895 242.672C51.2574 242.687 51.1205 242.702 50.9793 242.718C48.7922 242.969 45.6399 243.374 42.6063 244.016C41.8749 244.123 41.1353 244.229 40.4058 244.333C39.8928 244.406 39.3821 244.479 38.8772 244.55C36.2243 244.924 33.6314 245.277 31.0114 245.626C30.6155 245.679 30.2178 245.732 29.8189 245.784C29.3562 245.846 28.8918 245.907 28.4271 245.968C28.4189 245.969 28.4107 245.97 28.4025 245.971C26.6603 246.2 24.9028 246.429 23.1786 246.65C22.4363 246.745 21.6967 246.84 20.9599 246.934C20.3803 247.008 19.8016 247.082 19.2256 247.155C17.9153 247.322 16.6186 247.486 15.3236 247.649C14.3449 247.772 13.34 247.898 12.3502 248.023C11.1133 248.178 9.8638 248.335 8.6347 248.49C8.248 248.539 7.86405 248.587 7.48386 248.635C4.87652 248.964 2.24645 249.298 -0.343264 249.636C-0.779158 249.693 -1.19323 249.731 -1.4958 249.74C-1.79847 249.749 -1.9697 249.729 -1.97633 249.682C-1.98268 249.636 -1.82362 249.566 -1.53056 249.485C-1.23793 249.405 -0.830793 249.32 -0.39748 249.248C2.18207 248.819 4.8031 248.396 7.40028 247.979C7.77531 247.918 8.15396 247.858 8.5353 247.796C9.76216 247.6 11.0089 247.4 12.2438 247.203C13.229 247.045 14.2288 246.886 15.2028 246.73C16.4875 246.525 17.7747 246.318 19.0752 246.11C19.6531 246.017 20.2336 245.924 20.8148 245.83C21.5476 245.712 22.2837 245.593 23.0219 245.474C24.7418 245.196 26.4947 244.911 28.2318 244.625C28.2423 244.624 28.2528 244.622 28.2633 244.62C28.7136 244.546 29.1638 244.472 29.6123 244.398C30.0149 244.331 30.4162 244.265 30.8154 244.199C33.4213 243.766 35.9998 243.331 38.6361 242.876C39.1304 242.791 39.6307 242.704 40.1332 242.616C41.0261 242.46 41.9228 242.303 42.8218 242.143C43.6118 242.002 44.3767 241.865 45.154 241.724C45.5745 241.647 45.9984 241.57 46.4219 241.493C47.8308 241.234 49.2323 240.972 50.6234 240.704C54.1251 240.03 57.5863 239.328 61.0367 238.531C65.8716 237.41 70.7194 236.295 75.5804 235.18C77.9525 234.635 80.3408 234.088 82.7181 233.544C89.948 231.889 97.1787 230.236 104.394 228.572C104.496 228.548 104.599 228.525 104.702 228.501C111.827 226.857 118.938 225.202 126.041 223.518C128.62 222.906 131.197 222.291 133.776 221.671C138.4 220.558 143.018 219.431 147.635 218.285C154.821 216.501 161.991 214.673 169.154 212.789C176.312 210.907 183.439 208.974 190.582 206.974C203.009 203.496 215.367 199.981 227.707 196.395C240.082 192.799 252.384 189.147 264.701 185.397C276.994 181.655 289.274 177.822 301.522 173.909C306.444 172.336 311.362 170.751 316.273 169.155C323.512 166.802 330.914 164.368 338.2 161.948C339.582 161.489 340.924 161.043 342.286 160.589C350.972 157.694 359.503 154.821 368.191 151.875C370.324 151.152 372.549 150.396 374.777 149.639C375.288 149.465 375.802 149.29 376.32 149.114Z" fill="black" fill-opacity="0.44"/>
</g>
</g>
<mask id="mask1_250_1854" style="mask-type:alpha" maskUnits="userSpaceOnUse" x="0" y="-5" width="902" height="279">
<path d="M388.958 260.715C534.534 231.217 757.414 22.0145 901.484 -4.56169C749.605 20.9011 658.02 40.5858 562.141 80.7169C390.287 152.648 133.488 230.341 0.763145 247.148C111.008 263.173 243.382 290.213 388.958 260.715Z" fill="#B1F07A"/>
<path d="M388.958 260.715C534.534 231.217 757.414 22.0145 901.484 -4.56169C749.605 20.9011 658.02 40.5858 562.141 80.7169C390.287 152.648 133.488 230.341 0.763145 247.148C111.008 263.173 243.382 290.213 388.958 260.715Z" fill="black" fill-opacity="0.2"/>
</mask>
<g mask="url(#mask1_250_1854)">
<g filter="url(#filter1_f_250_1854)">
<path d="M401.578 253.263C393.505 255.425 386.565 258.121 379.098 260.828C371.361 263.624 363.028 266.446 352.574 268.264C349.534 268.791 346.872 269.179 344.464 269.484C331.453 271.028 325.926 270.723 308.905 272.599C307.697 272.724 306.435 272.855 305.101 272.995C294.136 274.149 283.113 274.518 273.43 274.604C262.261 274.708 252.867 274.47 247.226 274.821C243.189 275.068 240.551 274.858 237.982 274.524C233.847 273.98 229.923 273.132 220.719 273.124C213.738 273.111 208.073 272.924 202.664 272.595C197.29 272.251 192.093 271.58 185.895 270.525C184.917 270.358 183.768 270.169 182.476 269.959C177.322 269.129 169.835 267.901 161.6 266.468C154.516 265.245 146.879 263.897 139.835 262.773C132.522 261.6 125.852 260.692 121.4 260.321C119.94 260.198 118.452 260.051 116.955 259.887C109.071 259.022 100.723 257.703 93.0495 256.672C87.2614 255.887 81.8728 255.26 77.5217 254.964C74.0322 254.726 71.2493 254.527 69.104 254.347C67.0598 254.181 67.4839 253.621 69.5994 253.589C75.2825 253.506 83.6825 253.468 93.3054 253.61C93.3079 253.61 93.3104 253.61 93.3129 253.61C104.821 253.822 109.5 254.762 117.502 255.98C121.923 256.675 127.342 257.51 135.2 258.551C137.003 258.79 138.741 259.017 140.418 259.233C148.538 260.279 155.389 261.073 162.313 261.904C168.868 262.685 175.475 263.52 183.105 264.51C186.037 264.888 189.13 265.287 192.407 265.692C196.4 266.184 199.817 266.412 202.947 266.49C215.074 266.804 223.308 266.032 238.157 266.366C243.909 266.482 250.671 266.752 259.035 267.174C264.412 267.442 269.079 267.531 273.245 267.497C288.157 267.33 296.581 265.819 308.079 263.917C315.083 262.719 323.245 261.348 334.663 259.394C337.224 258.953 339.785 258.501 342.423 258.02C353.484 256.011 365.135 253.597 376.454 250.826C388.408 247.909 399.838 244.656 410.038 241.376C410.039 241.376 410.038 241.376 410.038 241.376C416.328 239.354 421.929 237.478 426.873 235.72C429.523 234.78 432.204 233.788 434.357 232.954C437.297 231.815 440.138 230.69 443.356 229.381C448.524 227.275 453.832 225.028 459.512 222.449C464.637 220.116 469.9 217.584 475.148 214.754C480.1 212.089 484.995 209.14 489.828 205.792C494.475 202.609 499.332 198.841 504.921 195.7C505.388 195.437 505.869 195.164 506.364 194.88C510.263 192.65 514.295 190.205 518.402 187.657C522.757 184.954 527.226 182.11 531.75 179.203C536.126 176.391 540.561 173.514 545.042 170.606C549.44 167.752 553.883 164.868 558.342 161.996C562.788 159.133 567.254 156.28 571.719 153.475C576.229 150.643 580.768 147.842 585.249 145.161C588.302 143.336 591.475 141.519 594.52 139.828C595.95 139.034 597.408 138.23 598.906 137.407C603.292 135.001 607.909 132.504 612.644 129.957C617.145 127.537 621.763 125.067 626.39 122.589C630.979 120.131 635.582 117.663 640.113 115.216C644.772 112.699 649.364 110.198 653.759 107.76C658.522 105.115 663.025 102.567 667.209 100.069C673.685 96.1459 679.474 92.3563 684.184 89.406C684.89 88.9599 685.543 88.5505 686.2 88.1377C692.426 84.2298 697.145 81.3234 701.292 78.7631C707.211 75.1162 711.961 72.1416 718.397 68.0978C721.284 66.2891 724.503 64.2766 728.351 61.9284C730.6 60.5564 733.05 59.1158 735.658 57.6475C741.159 54.5485 747.341 51.3464 753.635 48.465C758.433 46.2657 763.294 44.2529 767.946 42.5664C774.837 40.1399 773.536 41.3606 766.978 44.5655C762.466 46.808 758.332 48.8375 754.745 50.701C750.73 52.7884 747.402 54.6669 745.048 56.4126C742.302 58.4499 740.066 60.1475 737.919 61.6874C733.206 65.0828 728.877 67.6859 720.736 71.9276C720.541 72.0293 720.345 72.1318 720.146 72.2352C712.549 76.2059 708.029 79.8374 704.048 82.9999C701.591 84.9577 699.338 86.7498 696.711 88.3799C693.498 90.3777 691.683 91.1839 687.226 93.9129C683.756 96.0082 678.885 99.3061 670.323 104.981C666.654 107.359 662.24 110.13 657.041 113.345C656.344 113.776 655.623 114.221 654.878 114.68C650.982 117.081 647.233 119.352 643.695 121.482C638.911 124.359 634.455 127.012 630.295 129.481C625.434 132.366 620.976 135.001 616.892 137.422C611.933 140.361 607.507 142.994 603.54 145.381C598.482 148.425 594.155 151.075 590.379 153.48C589.214 154.222 588.035 154.976 586.961 155.666C584.241 157.414 580.845 159.527 577.021 161.888C572.962 164.394 568.392 167.196 563.547 170.176C559.222 172.837 554.674 175.641 550.075 178.497C545.597 181.278 541.072 184.107 536.639 186.908C532.455 189.551 528.364 192.162 524.464 194.685C524.068 194.941 523.686 195.188 523.266 195.458C519.376 197.954 514.774 200.865 509.7 203.875C505.16 206.512 500.598 210.077 495.37 213.749C490.447 217.217 485.098 220.48 479.759 223.348C474.249 226.319 468.724 228.955 463.472 231.331C457.382 234.081 451.864 236.396 446.946 238.433C443.446 239.88 440.555 241.062 437.955 242.138C435.086 243.331 432.446 244.362 430.32 245.154C422.378 248.099 418.576 248.943 413.12 250.301C413.12 250.301 413.12 250.301 413.12 250.301C410.055 251.056 406.634 251.901 401.578 253.263Z" fill="#B1F07A" fill-opacity="0.39"/>
</g>
</g>
</g>
<defs>
<filter id="filter0_f_250_1854" x="-33.9766" y="-32.9109" width="956.046" height="314.653" filterUnits="userSpaceOnUse" color-interpolation-filters="sRGB">
<feFlood flood-opacity="0" result="BackgroundImageFix"/>
<feBlend mode="normal" in="SourceGraphic" in2="BackgroundImageFix" result="shape"/>
<feGaussianBlur stdDeviation="16" result="effect1_foregroundBlur_250_1854"/>
</filter>
<filter id="filter1_f_250_1854" x="50.7729" y="24.2861" width="738.768" height="267.643" filterUnits="userSpaceOnUse" color-interpolation-filters="sRGB">
<feFlood flood-opacity="0" result="BackgroundImageFix"/>
<feBlend mode="normal" in="SourceGraphic" in2="BackgroundImageFix" result="shape"/>
<feGaussianBlur stdDeviation="8.5" result="effect1_foregroundBlur_250_1854"/>
</filter>
<clipPath id="clip0_250_1854">
<rect width="898" height="278" fill="white"/>
</clipPath>
</defs>
</svg>
