<svg width="11" height="10" viewBox="0 0 11 10" fill="none" xmlns="http://www.w3.org/2000/svg">
<path d="M9.38889 0C9.68357 0 9.96619 0.117063 10.1746 0.325437C10.3829 0.533811 10.5 0.816426 10.5 1.11111V8.88889C10.5 9.18357 10.3829 9.46619 10.1746 9.67456C9.96619 9.88294 9.68357 10 9.38889 10H1.61111C1.31643 10 1.03381 9.88294 0.825437 9.67456C0.617063 9.46619 0.5 9.18357 0.5 8.88889V1.11111C0.5 0.816426 0.617063 0.533811 0.825437 0.325437C1.03381 0.117063 1.31643 0 1.61111 0H9.38889ZM9.11111 8.61111V5.66667C9.11111 5.18633 8.9203 4.72567 8.58065 4.38602C8.241 4.04637 7.78034 3.85556 7.3 3.85556C6.82778 3.85556 6.27778 4.14444 6.01111 4.57778V3.96111H4.46111V8.61111H6.01111V5.87222C6.01111 5.44444 6.35556 5.09444 6.78333 5.09444C6.98961 5.09444 7.18744 5.17639 7.33331 5.32225C7.47917 5.46811 7.56111 5.66594 7.56111 5.87222V8.61111H9.11111ZM2.65556 3.08889C2.90309 3.08889 3.14049 2.99056 3.31552 2.81552C3.49056 2.64049 3.58889 2.40309 3.58889 2.15556C3.58889 1.63889 3.17222 1.21667 2.65556 1.21667C2.40655 1.21667 2.16774 1.31559 1.99166 1.49166C1.81559 1.66774 1.71667 1.90655 1.71667 2.15556C1.71667 2.67222 2.13889 3.08889 2.65556 3.08889ZM3.42778 8.61111V3.96111H1.88889V8.61111H3.42778Z" fill="#1D1E1B"/>
</svg>
