<svg width="963" height="1110" viewBox="0 0 963 1110" fill="none" xmlns="http://www.w3.org/2000/svg">
<path d="M123.521 815.312C125.452 815.359 127.197 814.169 127.859 812.355L126.441 807.298L126.426 807.286L126.359 807.232L126.235 807.132L126.075 807.001C125.822 806.795 125.441 806.482 124.942 806.067C123.944 805.235 122.473 803.993 120.602 802.366C116.858 799.11 111.515 794.314 105.153 788.182C92.4215 775.912 75.645 758.328 59.4419 737.061C43.2631 715.826 33.5057 698.547 26.7737 680.746C20.0199 662.887 16.2379 644.319 12.1897 620.3C4.1133 572.38 1.56445 548.903 8.60689 507.151C12.0776 486.575 21.4488 464.284 31.5506 443.013C34.5299 436.74 37.589 430.527 40.5659 424.48C47.5377 410.32 54.0582 397.076 58.0435 386.132C63.8132 370.288 68.3422 344.907 71.4183 323.824C71.7564 321.507 72.0778 319.235 72.382 317.028C75.8257 334.719 81.2706 358.091 89.4717 382.445C98.0506 407.922 109.221 428.961 118.245 443.632C122.759 450.973 126.744 456.732 129.612 460.67C131.046 462.639 132.201 464.154 133.005 465.184C133.406 465.699 133.72 466.093 133.937 466.363C133.988 466.426 134.033 466.482 134.073 466.531C134.118 466.587 134.157 466.634 134.188 466.673L134.256 466.757L134.276 466.781L134.283 466.788L134.285 466.791C134.286 466.792 134.286 466.793 137.752 463.923L134.286 466.793C135.603 468.382 137.831 468.873 139.693 467.982C141.555 467.092 142.573 465.049 142.162 463.027C138.967 447.295 138.921 423.247 141.27 399.819C143.627 376.316 148.305 354.34 154.077 342.556C159.129 332.241 168.535 318.939 179.505 306.154C190.461 293.387 202.714 281.44 213.29 273.732C222.107 267.306 229.963 263.253 237.915 259.152C239.533 258.317 241.156 257.48 242.791 256.62C252.46 251.539 262.236 245.825 273.116 235.441C282.008 226.955 293.645 209.107 304.347 190.811C315.157 172.329 325.361 152.772 331.38 140.373C331.49 140.147 331.581 139.911 331.651 139.669C337.342 120.187 346.961 80.9885 352.026 43.652C352.974 50.126 353.924 55.8994 354.972 61.1058C357.923 75.7781 361.73 86.4464 368.721 96.1454C375.723 105.861 390.288 116.983 404.152 126.305C418.205 135.754 432.244 143.809 438.817 147.356C449.457 153.098 469.63 161.239 478.233 164.555C479.182 164.92 480.226 164.954 481.196 164.65C489.247 162.129 499.64 150.724 494.481 127.457C489.972 107.126 484.318 85.466 474.94 68.3557C486.994 74.5204 499.98 81.4683 512.856 88.3582C523.253 93.9211 533.58 99.4463 543.288 104.491C569.969 118.355 672.338 181.109 687.194 191.034C690.543 193.271 695.598 196.034 701.837 199.443C725.309 212.27 765.528 234.248 794.639 271.853C813.269 295.919 831.921 322.724 847.016 347.21C862.18 371.809 873.525 393.706 877.823 408.062C877.857 408.176 877.896 408.289 877.939 408.4C877.939 408.4 877.939 408.4 877.939 408.4L877.94 408.401L877.944 408.414L877.966 408.471C877.987 408.524 878.018 408.606 878.06 408.716C878.144 408.938 878.269 409.273 878.434 409.718C878.762 410.609 879.243 411.94 879.847 413.679C881.056 417.158 882.754 422.267 884.696 428.744C888.581 441.702 893.437 460.119 897.308 481.91C905.064 525.568 908.798 582.403 893.168 635.964C878.325 686.831 853.005 737.923 828.271 778.173C815.911 798.287 803.738 815.628 793.153 828.825C782.433 842.19 773.701 850.844 768.246 854.114C766.415 855.211 765.607 857.443 766.311 859.457C767.015 861.472 769.037 862.715 771.152 862.434C790.366 859.88 807.042 856.764 824.044 850.249C841.066 843.728 858.211 833.88 878.545 818.065C896.875 803.808 918.945 779.861 936.392 757.197C945.074 745.919 952.698 734.846 958.198 725.316C957.256 762.24 953.798 806.557 943.662 838.219C931.072 877.543 908.809 925.652 869.888 968.617C830.735 1011.84 768.136 1061.38 707.45 1082.55C646.676 1103.74 552.456 1112.01 449.808 1096.67C347.47 1081.39 235.412 1028.3 167.15 980.71C144.813 965.138 117.368 939.556 93.553 914.19C69.6589 888.739 49.9134 864.031 42.6496 850.284C36.1487 837.981 30.9188 818.2 28.2097 798.804C26.9175 789.553 26.2179 780.522 26.2094 772.599C28.3767 776.648 31.3324 780.325 35.6571 784.226C41.1135 789.147 52.625 796.623 67.8401 802.992C83.121 809.39 102.429 814.796 123.521 815.312Z" fill="#8DE73E" stroke="#1D1E1B" stroke-width="9" stroke-linejoin="round"/>
<mask id="path-2-inside-1_102_552" fill="white">
<path d="M449.186 942.093C459.281 956.387 491.007 967.996 516.924 958.577C542.842 949.157 564.636 900.883 564.636 900.883C545.72 914.85 519.999 927.273 491.596 920.31C460.377 912.657 451.96 894.615 443.995 878.653C443.995 893.617 435.049 922.076 449.186 942.093Z"/>
</mask>
<path d="M449.186 942.093C459.281 956.387 491.007 967.996 516.924 958.577C542.842 949.157 564.636 900.883 564.636 900.883C545.72 914.85 519.999 927.273 491.596 920.31C460.377 912.657 451.96 894.615 443.995 878.653C443.995 893.617 435.049 922.076 449.186 942.093Z" fill="#1D1E1B"/>
<path d="M516.924 958.577L518.291 962.336L518.291 962.336L516.924 958.577ZM449.186 942.093L445.919 944.4L445.919 944.4L449.186 942.093ZM443.995 878.653L447.575 876.867L439.995 878.653H443.995ZM491.596 920.31L492.548 916.425L491.596 920.31ZM564.636 900.883L568.281 902.529L574.586 888.563L562.26 897.665L564.636 900.883ZM515.558 954.818C503.561 959.178 490.033 958.718 478.209 955.378C466.277 952.008 456.782 945.914 452.453 939.785L445.919 944.4C451.685 952.565 463.101 959.424 476.035 963.077C489.077 966.761 504.371 967.395 518.291 962.336L515.558 954.818ZM452.453 939.785C446.144 930.852 444.83 919.811 445.286 908.642C445.513 903.082 446.169 897.65 446.789 892.546C447.397 887.546 447.995 882.689 447.995 878.653H439.995C439.995 882.098 439.476 886.411 438.848 891.581C438.232 896.647 437.535 902.387 437.293 908.315C436.81 920.121 438.091 933.317 445.919 944.4L452.453 939.785ZM440.416 880.438C444.347 888.317 448.686 897.371 456.158 905.334C463.734 913.408 474.346 920.2 490.644 924.195L492.548 916.425C477.627 912.767 468.421 906.712 461.992 899.86C455.46 892.899 451.608 884.95 447.575 876.867L440.416 880.438ZM490.644 924.195C520.772 931.581 547.746 918.326 567.012 904.101L562.26 897.665C543.694 911.373 519.225 922.965 492.548 916.425L490.644 924.195ZM564.636 900.883C560.99 899.237 560.99 899.236 560.99 899.236C560.99 899.236 560.99 899.236 560.99 899.236C560.99 899.237 560.989 899.238 560.988 899.24C560.986 899.244 560.983 899.251 560.979 899.261C560.97 899.281 560.956 899.312 560.936 899.354C560.898 899.438 560.839 899.566 560.759 899.737C560.601 900.077 560.362 900.584 560.047 901.235C559.417 902.54 558.484 904.423 557.282 906.717C554.876 911.309 551.408 917.519 547.154 924.004C542.893 930.501 537.895 937.194 532.445 942.8C526.96 948.442 521.235 952.754 515.558 954.818L518.291 962.336C525.572 959.69 532.29 954.436 538.181 948.377C544.106 942.282 549.417 935.14 553.844 928.391C558.278 921.63 561.878 915.182 564.368 910.429C565.615 908.05 566.587 906.088 567.25 904.715C567.582 904.029 567.836 903.489 568.01 903.118C568.096 902.932 568.163 902.788 568.208 902.689C568.231 902.64 568.248 902.601 568.26 902.574C568.267 902.561 568.271 902.55 568.275 902.543C568.277 902.539 568.278 902.536 568.279 902.533C568.28 902.532 568.28 902.531 568.28 902.53C568.281 902.529 568.281 902.529 564.636 900.883Z" fill="#1D1E1B" mask="url(#path-2-inside-1_102_552)"/>
<path d="M359.314 525.495C369.871 526.235 379.266 529.488 387.596 534.487C382.324 534.818 375.493 535.907 369.505 538.634C358.323 543.728 340.459 556.211 340.459 579.362C340.459 599.373 355.143 612.881 366.388 619.027C374.193 623.293 383.729 625.342 392.432 625.575C401.064 625.806 409.271 624.259 414.254 620.931C425.622 613.336 430.037 604.771 433.358 598.326L433.368 598.307C433.39 598.265 433.411 598.223 433.433 598.181C438.398 612.093 441.137 624.933 442.016 633.44C442.529 638.416 442.754 643.149 442.731 647.657C432.57 645.338 412.284 642.489 395.775 646.249C394.338 646.576 392.909 646.899 391.489 647.22L391.428 647.234C381.376 649.507 371.723 651.689 363.186 654.478C354.635 657.272 347.04 660.723 341.177 665.619C334.872 670.884 329.241 679.675 325.319 688.677C321.405 697.659 319.024 707.239 319.558 714.196C320.061 720.749 321.317 731.075 323.459 740.547C324.53 745.28 325.835 749.858 327.403 753.665C328.129 755.427 328.938 757.092 329.846 758.552C300.263 755.302 279.084 736.501 269.569 718.112C255.75 691.405 239.132 637.437 262.629 588.205C273.453 565.524 286.912 549.889 302.947 539.908C318.966 529.935 337.718 525.504 359.314 525.495ZM431.562 593.164C430.98 594.209 430.409 595.317 429.827 596.446L429.812 596.475C426.558 602.789 422.529 610.592 412.032 617.604C408.055 620.262 400.831 621.798 392.539 621.576C384.317 621.356 375.435 619.414 368.307 615.517C357.65 609.692 344.459 597.261 344.459 579.362C344.459 558.617 360.443 547.158 371.163 542.274C379.146 538.639 389.03 538.175 393.47 538.421C411.288 551.639 423.692 572.959 431.562 593.164ZM396.663 650.149C412.792 646.475 433.093 649.465 442.642 651.743C441.44 682.722 428.498 702.815 418.447 717.923C402.308 742.181 373.005 760.676 335.254 758.966C333.856 757.698 332.44 755.392 331.102 752.142C329.652 748.623 328.406 744.284 327.361 739.665C325.272 730.431 324.039 720.305 323.546 713.89C323.085 707.877 325.184 699.001 328.986 690.275C332.779 681.569 338.099 673.4 343.741 668.689C349.039 664.264 356.083 661.007 364.428 658.28C372.77 655.555 382.251 653.41 392.371 651.122C393.791 650.801 395.222 650.477 396.663 650.149Z" fill="white" stroke="#1D1E1B" stroke-width="4" stroke-linecap="square"/>
<path d="M359.465 522.32V523.14H359.408L359.465 522.32ZM359.465 522.32L359.546 521.147L359.465 522.32M359.465 522.32V522.32M359.465 522.32V521.14V522.32ZM328.933 760.103L332.916 760.577L330.898 757.111C330.182 755.882 329.527 754.505 328.923 753.039C327.403 749.35 326.123 744.87 325.063 740.184C322.942 730.81 321.696 720.567 321.197 714.07C320.693 707.502 322.958 698.211 326.826 689.335C330.695 680.455 336.198 671.919 342.23 666.882C347.861 662.18 355.23 658.808 363.696 656.042C372.143 653.283 381.712 651.117 391.78 648.841L391.78 648.841L391.851 648.825C393.271 648.504 394.701 648.181 396.139 647.853C412.056 644.228 431.716 646.882 441.941 649.165L444.373 649.708L444.377 647.216C444.383 642.783 444.153 638.14 443.651 633.271C442.774 624.775 440.086 612.126 435.259 598.411L433.721 594.041L431.595 598.158C428.346 604.45 424.018 612.43 413.341 619.562C408.772 622.615 400.968 624.158 392.476 623.93C383.97 623.702 374.703 621.698 367.176 617.583C356.171 611.568 342.103 598.503 342.103 579.362C342.103 557.203 359.191 545.14 370.186 540.132C375.511 537.707 381.596 536.611 386.595 536.208L392.99 535.692L387.434 532.483C379.152 527.698 369.845 524.587 359.442 523.855L359.371 523.85L359.3 523.85C337.482 523.861 318.415 528.341 302.079 538.511C285.722 548.693 272.074 564.597 261.145 587.496C237.322 637.412 254.192 691.973 268.109 718.868C277.767 737.532 299.121 756.558 328.933 760.103ZM394.537 537.165L394.052 536.804L393.447 536.772C388.832 536.533 378.741 537.016 370.482 540.777C359.57 545.748 342.815 557.629 342.815 579.362C342.815 598.129 356.619 611.003 367.519 616.961C374.925 621.009 384.076 622.995 392.495 623.221C400.927 623.447 408.554 621.906 412.945 618.973C423.804 611.718 427.991 603.598 431.273 597.229C431.273 597.229 431.273 597.229 431.273 597.229L431.29 597.197L431.29 597.197C431.846 596.118 432.379 595.083 432.92 594.106L433.374 593.284L433.032 592.411C425.12 572.152 412.617 550.617 394.537 537.165ZM444.273 652.103L444.341 650.451L442.732 650.074C432.993 647.788 412.637 644.824 396.298 648.545C394.863 648.872 393.436 649.194 392.02 649.515L392.009 649.517C381.907 651.801 372.347 653.963 363.918 656.717C355.488 659.47 348.218 662.807 342.688 667.426C336.773 672.365 331.325 680.79 327.479 689.617C323.631 698.449 321.416 707.615 321.907 714.016C322.404 720.488 323.647 730.696 325.757 740.028C326.813 744.694 328.083 749.131 329.582 752.769C330.923 756.026 332.413 758.553 334.03 760.074L334.57 760.583L335.312 760.615C373.619 762.305 403.401 743.508 419.815 718.835C429.864 703.731 442.981 683.395 444.273 652.103ZM301.701 537.909C318.198 527.64 337.431 523.14 359.383 523.14H359.396L359.408 523.141C372.842 524.069 384.452 528.919 394.395 536.178C413.25 549.943 426.112 572.374 434.102 593.202C440.106 608.851 443.371 623.625 444.359 633.198C444.978 639.195 445.185 644.855 445.049 650.203C444.221 682.795 430.678 703.792 420.409 719.227C403.752 744.264 373.438 763.288 334.476 761.286C301.462 759.589 277.824 739.193 267.476 719.194C253.517 692.217 236.539 637.401 260.502 587.191C271.475 564.198 285.205 548.178 301.701 537.909Z" fill="#1D1E1B" stroke="#1D1E1B" stroke-width="4" stroke-linecap="square"/>
<path d="M337.988 761.055C375.132 761.776 404.02 743.219 420.112 719.031M327.403 753.665C328.129 755.427 328.938 757.092 329.846 758.552C300.263 755.302 279.084 736.501 269.569 718.112C255.75 691.405 239.132 637.437 262.629 588.205C273.453 565.524 286.912 549.889 302.947 539.908C318.966 529.935 337.718 525.504 359.314 525.495C369.871 526.235 379.266 529.488 387.596 534.487C382.324 534.818 375.493 535.907 369.505 538.634C358.323 543.728 340.459 556.211 340.459 579.362C340.459 599.373 355.143 612.881 366.388 619.027C374.193 623.293 383.729 625.342 392.432 625.575C401.064 625.806 409.271 624.259 414.254 620.931C425.622 613.336 430.037 604.771 433.358 598.326L433.368 598.307C433.39 598.265 433.411 598.223 433.433 598.181C438.398 612.093 441.137 624.933 442.016 633.44C442.529 638.416 442.754 643.149 442.731 647.657C432.57 645.338 412.284 642.489 395.775 646.249C394.338 646.576 392.909 646.899 391.489 647.22L391.428 647.234C381.376 649.507 371.723 651.689 363.186 654.478C354.635 657.272 347.04 660.723 341.177 665.619C334.872 670.884 329.241 679.675 325.319 688.677C321.405 697.659 319.024 707.239 319.558 714.196C320.061 720.749 321.317 731.075 323.459 740.547C324.53 745.28 325.835 749.858 327.403 753.665Z" fill="#1D1E1B" stroke="#1D1E1B" stroke-width="4" stroke-linecap="square"/>
<path d="M359.465 522.32V523.14H359.408L359.465 522.32ZM359.465 522.32L359.546 521.147L359.465 522.32M359.465 522.32V522.32M359.465 522.32V521.14V522.32ZM328.933 760.103L332.916 760.577L330.898 757.111C330.182 755.882 329.527 754.505 328.923 753.039C327.403 749.35 326.123 744.87 325.063 740.184C322.942 730.81 321.696 720.567 321.197 714.07C320.693 707.502 322.958 698.211 326.826 689.335C330.695 680.455 336.198 671.919 342.23 666.882C347.861 662.18 355.23 658.808 363.696 656.042C372.143 653.283 381.712 651.117 391.78 648.841L391.78 648.841L391.851 648.825C393.271 648.504 394.701 648.181 396.139 647.853C412.056 644.228 431.716 646.882 441.941 649.165L444.373 649.708L444.377 647.216C444.383 642.783 444.153 638.14 443.651 633.271C442.774 624.775 440.086 612.126 435.259 598.411L433.721 594.041L431.595 598.158C428.346 604.45 424.018 612.43 413.341 619.562C408.772 622.615 400.968 624.158 392.476 623.93C383.97 623.702 374.703 621.698 367.176 617.583C356.171 611.568 342.103 598.503 342.103 579.362C342.103 557.203 359.191 545.14 370.186 540.132C375.511 537.707 381.596 536.611 386.595 536.208L392.99 535.692L387.434 532.483C379.152 527.698 369.845 524.587 359.442 523.855L359.371 523.85L359.3 523.85C337.482 523.861 318.415 528.341 302.079 538.511C285.722 548.693 272.074 564.597 261.145 587.496C237.322 637.412 254.192 691.973 268.109 718.868C277.767 737.532 299.121 756.558 328.933 760.103ZM394.537 537.165L394.052 536.804L393.447 536.772C388.832 536.533 378.741 537.016 370.482 540.777C359.57 545.748 342.815 557.629 342.815 579.362C342.815 598.129 356.619 611.003 367.519 616.961C374.925 621.009 384.076 622.995 392.495 623.221C400.927 623.447 408.554 621.906 412.945 618.973C423.804 611.718 427.991 603.598 431.273 597.229C431.273 597.229 431.273 597.229 431.273 597.229L431.29 597.197L431.29 597.197C431.846 596.118 432.379 595.083 432.92 594.106L433.374 593.284L433.032 592.411C425.12 572.152 412.617 550.617 394.537 537.165ZM444.273 652.103L444.341 650.451L442.732 650.074C432.993 647.788 412.637 644.824 396.298 648.545C394.863 648.872 393.436 649.194 392.02 649.515L392.009 649.517C381.907 651.801 372.347 653.963 363.918 656.717C355.488 659.47 348.218 662.807 342.688 667.426C336.773 672.365 331.325 680.79 327.479 689.617C323.631 698.449 321.416 707.615 321.907 714.016C322.404 720.488 323.647 730.696 325.757 740.028C326.813 744.694 328.083 749.131 329.582 752.769C330.923 756.026 332.413 758.553 334.03 760.074L334.57 760.583L335.312 760.615C373.619 762.305 403.401 743.508 419.815 718.835C429.864 703.731 442.981 683.395 444.273 652.103ZM301.701 537.909C318.198 527.64 337.431 523.14 359.383 523.14H359.396L359.408 523.141C372.842 524.069 384.452 528.919 394.395 536.178C413.25 549.943 426.112 572.374 434.102 593.202C440.106 608.851 443.371 623.625 444.359 633.198C444.978 639.195 445.185 644.855 445.049 650.203C444.221 682.795 430.678 703.792 420.409 719.227C403.752 744.264 373.438 763.288 334.476 761.286C301.462 759.589 277.824 739.193 267.476 719.194C253.517 692.217 236.539 637.401 260.502 587.191C271.475 564.198 285.205 548.178 301.701 537.909Z" fill="#1D1E1B" stroke="#1D1E1B" stroke-width="4" stroke-linecap="square"/>
<path d="M588.122 732.501C560.988 729.612 541.624 713.757 532.929 698.347C520.168 675.73 504.879 630.127 526.516 588.552C536.499 569.369 548.913 556.142 563.718 547.69C578.519 539.24 595.86 535.479 615.842 535.471C625.194 536.073 633.551 538.627 640.996 542.557C636.278 542.903 630.433 543.852 625.264 546.011C614.982 550.306 598.251 560.945 598.251 580.859C598.251 598.084 612.009 609.607 622.376 614.803C629.607 618.428 638.43 620.164 646.475 620.361C654.45 620.557 662.048 619.249 666.676 616.413C677.174 609.982 681.298 602.718 684.379 597.237C688.896 608.909 691.389 619.658 692.191 626.779C692.65 630.861 692.858 634.748 692.851 638.454C683.403 636.493 664.758 634.118 649.568 637.29C648.242 637.567 646.923 637.841 645.613 638.113L645.604 638.114L645.548 638.126C636.25 640.054 627.321 641.905 619.424 644.271C611.518 646.64 604.479 649.569 599.035 653.738C593.167 658.232 587.932 665.73 584.287 673.402C580.657 681.041 578.417 689.25 578.92 695.265C579.387 700.841 580.551 709.624 582.54 717.685C583.533 721.713 584.747 725.622 586.211 728.881C586.787 730.162 587.421 731.389 588.122 732.501ZM650.386 641.206C665.215 638.109 683.857 640.595 692.755 642.522C691.574 668.5 679.723 685.385 670.459 698.155C655.593 718.647 628.535 734.349 593.597 732.9C592.352 731.854 591.078 729.953 589.86 727.242C588.532 724.286 587.387 720.632 586.423 716.727C584.498 708.922 583.361 700.357 582.906 694.932C582.489 689.946 584.393 682.5 587.9 675.119C591.391 667.77 596.285 660.883 601.467 656.914C606.348 653.177 612.849 650.416 620.572 648.103C628.287 645.792 637.055 643.972 646.416 642.031L646.433 642.027C647.741 641.756 649.059 641.483 650.386 641.206ZM647.43 546.435C663.795 557.575 675.204 575.505 682.466 592.533C681.963 593.372 681.467 594.253 680.967 595.144L680.951 595.172C677.955 600.503 674.257 607.078 664.587 613.002C660.928 615.244 654.252 616.551 646.573 616.363C638.963 616.176 630.751 614.527 624.169 611.227C614.277 606.269 602.251 595.79 602.251 580.859C602.251 563.539 616.829 553.869 626.806 549.702C634.179 546.622 643.316 546.227 647.43 546.435Z" fill="white" stroke="#1D1E1B" stroke-width="4" stroke-linecap="square"/>
<path d="M587.213 734.055L591.203 734.516L589.166 731.054C588.646 730.17 588.162 729.211 587.71 728.206C586.303 725.072 585.117 721.268 584.136 717.291C582.173 709.335 581.02 700.642 580.558 695.128C580.09 689.537 582.192 681.642 585.771 674.109C589.353 666.57 594.448 659.323 600.034 655.045C605.247 651.053 612.064 648.193 619.895 645.847C627.708 643.507 636.559 641.67 645.871 639.739L645.938 639.725L645.945 639.724C647.256 639.452 648.576 639.178 649.904 638.901C664.536 635.845 682.589 638.05 692.097 639.979L694.501 640.466L694.495 638.013C694.485 634.378 694.272 630.575 693.824 626.595C693.021 619.458 690.573 608.864 686.186 597.359L684.669 593.38L682.576 597.088C679.587 602.382 675.552 609.047 665.818 615.01C661.588 617.602 654.369 618.91 646.515 618.717C638.649 618.524 630.077 616.823 623.112 613.333C612.938 608.233 599.895 597.138 599.895 580.859C599.895 562.015 615.737 551.774 625.897 547.529C630.412 545.644 635.524 544.704 639.918 544.297L646.861 543.655L640.634 540.52C633.281 536.817 625.076 534.418 615.959 533.83L615.895 533.826L615.83 533.826C595.647 533.835 578.011 537.636 562.903 546.261C547.779 554.895 535.161 568.379 525.057 587.792C503.039 630.099 518.629 676.348 531.498 699.156C540.364 714.868 559.913 730.902 587.213 734.055ZM648.44 545.133L647.972 544.814L647.406 544.787C643.135 544.585 633.807 544.995 626.173 548.184C616.067 552.405 600.607 562.474 600.607 580.859C600.607 596.733 613.343 607.641 623.432 612.699C630.281 616.131 638.744 617.816 646.533 618.007C654.333 618.199 661.388 616.891 665.445 614.406C675.483 608.256 679.35 601.376 682.384 595.978L682.402 595.946L682.402 595.946C682.873 595.108 683.327 594.301 683.786 593.531L684.307 592.656L683.907 591.72C676.59 574.621 665.067 556.487 648.44 545.133ZM694.383 642.903L694.466 641.204L692.802 640.85C683.722 638.918 665.056 636.462 650.05 639.596C648.719 639.874 647.396 640.148 646.083 640.42C636.739 642.358 627.897 644.191 620.1 646.527C612.302 648.863 605.58 651.693 600.468 655.608C595.004 659.792 589.97 666.931 586.415 674.412C582.858 681.9 580.815 689.66 581.268 695.069C581.727 700.556 582.876 709.211 584.827 717.121C585.803 721.077 586.977 724.836 588.361 727.916C589.588 730.65 590.947 732.769 592.417 734.056L592.949 734.521L593.654 734.549C629.084 735.978 656.619 720.032 671.789 699.122C681.042 686.367 693.099 669.225 694.383 642.903ZM562.549 545.645C577.811 536.933 595.602 533.116 615.906 533.116H615.917L615.928 533.117C628.353 533.904 639.094 538.018 648.295 544.177C665.742 555.859 677.645 574.895 685.039 592.57C690.594 605.849 693.617 618.387 694.532 626.515C695.105 631.606 695.296 636.41 695.17 640.95C694.404 668.62 681.864 686.445 672.366 699.538C656.949 720.789 628.902 736.923 592.868 735.225C562.335 733.786 540.46 716.486 530.877 699.504C517.962 676.614 502.243 630.088 524.425 587.466C534.58 567.953 547.286 554.358 562.549 545.645ZM615.98 532.296V531.116L616.055 531.121L615.98 532.296V532.296Z" fill="#1D1E1B" stroke="#1D1E1B" stroke-width="4" stroke-linecap="square"/>
<path d="M596.572 734.983C630.709 735.448 657.259 719.755 672.078 699.33M692.851 638.454C683.403 636.493 664.758 634.118 649.568 637.29C648.242 637.567 646.923 637.841 645.613 638.113L645.604 638.114L645.548 638.126C636.25 640.054 627.321 641.905 619.424 644.271C611.518 646.64 604.479 649.569 599.035 653.738C593.167 658.232 587.932 665.73 584.287 673.402C580.657 681.041 578.417 689.25 578.92 695.265C579.387 700.841 580.551 709.624 582.54 717.685C583.533 721.713 584.747 725.622 586.211 728.881C586.787 730.162 587.421 731.389 588.122 732.501C560.988 729.612 541.624 713.757 532.929 698.347C520.168 675.73 504.879 630.127 526.516 588.552C536.499 569.369 548.913 556.142 563.718 547.69C578.519 539.24 595.86 535.479 615.842 535.471C625.194 536.073 633.551 538.627 640.996 542.557C636.278 542.903 630.433 543.852 625.264 546.011C614.982 550.306 598.251 560.945 598.251 580.859C598.251 598.084 612.009 609.607 622.376 614.803C629.607 618.428 638.43 620.164 646.475 620.361C654.45 620.557 662.048 619.249 666.676 616.413C677.174 609.982 681.298 602.718 684.379 597.237C688.896 608.909 691.389 619.658 692.191 626.779C692.65 630.861 692.858 634.748 692.851 638.454Z" fill="#1D1E1B" stroke="#1D1E1B" stroke-width="4" stroke-linecap="square"/>
<path d="M587.213 734.055L591.203 734.516L589.166 731.054C588.646 730.17 588.162 729.211 587.71 728.206C586.303 725.072 585.117 721.268 584.136 717.291C582.173 709.335 581.02 700.642 580.558 695.128C580.09 689.537 582.192 681.642 585.771 674.109C589.353 666.57 594.448 659.323 600.034 655.045C605.247 651.053 612.064 648.193 619.895 645.847C627.708 643.507 636.559 641.67 645.871 639.739L645.938 639.725L645.945 639.724C647.256 639.452 648.576 639.178 649.904 638.901C664.536 635.845 682.589 638.05 692.097 639.979L694.501 640.466L694.495 638.013C694.485 634.378 694.272 630.575 693.824 626.595C693.021 619.458 690.573 608.864 686.186 597.359L684.669 593.38L682.576 597.088C679.587 602.382 675.552 609.047 665.818 615.01C661.588 617.602 654.369 618.91 646.515 618.717C638.649 618.524 630.077 616.823 623.112 613.333C612.938 608.233 599.895 597.138 599.895 580.859C599.895 562.015 615.737 551.774 625.897 547.529C630.412 545.644 635.524 544.704 639.918 544.297L646.861 543.655L640.634 540.52C633.281 536.817 625.076 534.418 615.959 533.83L615.895 533.826L615.83 533.826C595.647 533.835 578.011 537.636 562.903 546.261C547.779 554.895 535.161 568.379 525.057 587.792C503.039 630.099 518.629 676.348 531.498 699.156C540.364 714.868 559.913 730.902 587.213 734.055ZM648.44 545.133L647.972 544.814L647.406 544.787C643.135 544.585 633.807 544.995 626.173 548.184C616.067 552.405 600.607 562.474 600.607 580.859C600.607 596.733 613.343 607.641 623.432 612.699C630.281 616.131 638.744 617.816 646.533 618.007C654.333 618.199 661.388 616.891 665.445 614.406C675.483 608.256 679.35 601.376 682.384 595.978L682.402 595.946L682.402 595.946C682.873 595.108 683.327 594.301 683.786 593.531L684.307 592.656L683.907 591.72C676.59 574.621 665.067 556.487 648.44 545.133ZM694.383 642.903L694.466 641.204L692.802 640.85C683.722 638.918 665.056 636.462 650.05 639.596C648.719 639.874 647.396 640.148 646.083 640.42C636.739 642.358 627.897 644.191 620.1 646.527C612.302 648.863 605.58 651.693 600.468 655.608C595.004 659.792 589.97 666.931 586.415 674.412C582.858 681.9 580.815 689.66 581.268 695.069C581.727 700.556 582.876 709.211 584.827 717.121C585.803 721.077 586.977 724.836 588.361 727.916C589.588 730.65 590.947 732.769 592.417 734.056L592.949 734.521L593.654 734.549C629.084 735.978 656.619 720.032 671.789 699.122C681.042 686.367 693.099 669.225 694.383 642.903ZM562.549 545.645C577.811 536.933 595.602 533.116 615.906 533.116H615.917L615.928 533.117C628.353 533.904 639.094 538.018 648.295 544.177C665.742 555.859 677.645 574.895 685.039 592.57C690.594 605.849 693.617 618.387 694.532 626.515C695.105 631.606 695.296 636.41 695.17 640.95C694.404 668.62 681.864 686.445 672.366 699.538C656.949 720.789 628.902 736.923 592.868 735.225C562.335 733.786 540.46 716.486 530.877 699.504C517.962 676.614 502.243 630.088 524.425 587.466C534.58 567.953 547.286 554.358 562.549 545.645ZM615.98 532.296V531.116L616.055 531.121L615.98 532.296V532.296Z" fill="#1D1E1B" stroke="#1D1E1B" stroke-width="4" stroke-linecap="square"/>
</svg>
