<svg width="977" height="1125" viewBox="0 0 977 1125" fill="none" xmlns="http://www.w3.org/2000/svg">
<g clip-path="url(#clip0_221_543)">
<path d="M357.235 66.6479C360.067 79.0842 363.815 88.9406 370.128 98.0163L370.824 98.9982C378.375 109.477 393.7 121.094 407.72 130.522C421.196 139.583 434.647 147.386 441.839 151.328L443.192 152.064C453.536 157.646 472.353 165.322 481.836 169.024L483.604 169.709C485.371 170.391 487.315 170.453 489.122 169.888C499.447 166.654 510.387 153.183 505.427 128.863L505.18 127.698C501.485 111.033 496.956 93.0602 490.097 77.2597C507.676 86.455 526.534 96.7417 543.955 105.884L549.189 108.617C576.078 122.591 679.764 186.155 694.764 196.177C711.673 207.474 765.118 229.337 801.959 276.195L802.826 277.307C821.642 301.617 840.479 328.691 855.711 353.402C871.072 378.324 882.341 400.167 886.545 414.21C886.577 414.317 886.611 414.422 886.647 414.528L886.762 414.84L886.764 414.846C886.767 414.856 886.774 414.873 886.783 414.897C886.801 414.946 886.832 415.024 886.872 415.13C886.953 415.344 887.076 415.674 887.239 416.115C887.564 416.998 888.044 418.325 888.649 420.065C889.857 423.546 891.562 428.674 893.514 435.187C897.421 448.219 902.309 466.752 906.203 488.68C913.897 531.99 917.601 587.883 902.818 640.675L902.099 643.187C887.168 694.362 861.659 745.865 836.698 786.488C824.232 806.778 811.977 824.23 801.361 837.469C790.491 851.021 782.005 859.3 777.117 862.23C773.708 864.273 772.203 868.43 773.515 872.183C774.825 875.934 778.59 878.251 782.529 877.727C802.121 875.122 819.375 871.915 837.029 865.15C854.166 858.583 871.325 848.804 891.331 833.459L893.276 831.956C912.219 817.222 934.823 792.659 952.62 769.539C958.017 762.527 963.03 755.569 967.41 748.976C965.969 782.953 962.196 820.534 953.333 848.221C940.879 887.123 919.03 934.5 881.142 977.049L879.326 979.073C840.193 1022.28 777.895 1071.61 717.593 1093.07L716.169 1093.58C655.738 1114.66 561.845 1123.09 459.143 1108.09L456.714 1107.74C354.449 1092.46 242.317 1039.61 173.311 991.893L171.689 990.769C149.351 975.195 121.728 949.466 97.6543 923.822C73.8123 898.425 54.3469 874.058 46.9675 860.476L46.6257 859.837C40.3313 847.924 35.1081 828.361 32.3875 808.881C31.7186 804.092 31.2105 799.374 30.8749 794.852C31.4126 795.397 31.9708 795.944 32.553 796.491L33.6034 797.459C39.5428 802.815 51.6209 810.604 67.3233 817.178C83.1481 823.804 103.2 829.431 125.17 829.967C128.765 830.055 132.014 827.84 133.247 824.462C134.479 821.083 133.419 817.295 130.612 815.048H130.614L130.612 815.047C130.61 815.045 130.606 815.043 130.601 815.038C130.589 815.028 130.568 815.012 130.539 814.988C130.481 814.942 130.39 814.867 130.266 814.766C130.019 814.564 129.642 814.255 129.146 813.842C128.155 813.015 126.684 811.773 124.808 810.141C121.054 806.877 115.684 802.057 109.285 795.889C96.8723 783.925 80.6499 766.951 64.8442 746.469L63.3163 744.475C47.0781 723.16 37.3888 705.957 30.7208 688.323C24.4318 671.691 20.7098 654.377 16.8907 632.23L16.1253 627.734C8.08982 580.052 5.53358 556.709 12.1684 516.19L12.4919 514.247C15.9167 493.941 25.2125 471.745 35.4433 450.201C45.4034 429.227 56.5998 408.24 62.4479 392.179C67.1993 379.13 71.0913 360.05 74.054 342.072C77.1787 355.46 81.2003 370.464 86.3081 385.928L87.1159 388.353C95.9295 414.53 107.399 436.13 116.661 451.19C121.298 458.729 125.395 464.654 128.355 468.718C129.834 470.75 131.031 472.32 131.87 473.395C132.289 473.934 132.62 474.349 132.851 474.637C132.967 474.781 133.058 474.892 133.123 474.973C133.156 475.012 133.182 475.044 133.201 475.068C133.211 475.08 133.219 475.09 133.226 475.097C133.229 475.101 133.232 475.104 133.235 475.107C133.236 475.109 133.238 475.112 133.238 475.112C133.245 475.11 133.419 474.967 139.694 469.769L133.24 475.115C135.692 478.076 139.842 478.989 143.309 477.33C146.777 475.672 148.672 471.868 147.906 468.102C144.777 452.695 144.693 428.744 147.06 405.136C149.403 381.759 153.991 360.347 159.418 348.894L159.677 348.358C164.6 338.305 173.911 325.092 184.933 312.245C195.584 299.831 207.376 288.29 217.564 280.685L218.545 279.961C229.019 272.328 238.035 268.134 247.99 262.901C257.634 257.832 267.565 252.053 278.537 241.808L279.601 240.803C289.068 231.768 301.118 213.195 311.932 194.705C322.26 177.045 332.041 158.432 338.285 145.745L339.486 143.289C339.639 142.973 339.774 142.647 339.886 142.315L339.991 141.979C344.634 126.081 351.879 97.1855 357.235 66.6479Z" fill="#90C860" stroke="#622CA8" stroke-width="17" stroke-linejoin="round"/>
<path d="M455.52 954.734C465.758 969.231 497.931 981.005 524.213 971.452C550.497 961.899 572.598 912.938 572.598 912.938C553.416 927.104 527.332 939.704 498.528 932.642C466.869 924.879 458.333 906.582 450.256 890.392C450.256 905.569 441.184 934.434 455.52 954.734Z" fill="#622CA8"/>
<mask id="mask0_221_543" style="mask-type:luminance" maskUnits="userSpaceOnUse" x="447" y="890" width="126" height="85">
<path d="M455.52 954.734C465.758 969.231 497.931 981.005 524.213 971.452C550.497 961.899 572.598 912.938 572.598 912.938C553.416 927.104 527.332 939.704 498.528 932.642C466.869 924.879 458.333 906.582 450.256 890.392C450.256 905.569 441.184 934.434 455.52 954.734Z" fill="white"/>
</mask>
<g mask="url(#mask0_221_543)">
<path d="M450.256 890.392L453.785 888.631L446.313 890.392H450.256ZM572.598 912.938L576.191 914.561L582.407 900.791L570.255 909.765L572.598 912.938ZM524.213 971.452L522.867 967.745C510.673 972.177 496.929 971.708 484.921 968.316C472.807 964.894 463.151 958.703 458.741 952.459L455.52 954.734L452.299 957.009C458.126 965.261 469.676 972.206 482.778 975.907C495.987 979.638 511.472 980.28 525.561 975.159L524.213 971.452ZM455.52 954.734L458.741 952.459C452.321 943.368 450.989 932.139 451.452 920.802C451.683 915.158 452.349 909.645 452.977 904.469C453.594 899.396 454.199 894.477 454.199 890.392H450.256H446.313C446.313 893.895 445.785 898.276 445.148 903.518C444.524 908.657 443.817 914.473 443.572 920.481C443.083 932.445 444.382 945.799 452.299 957.009L455.52 954.734ZM450.256 890.392L446.728 892.153C450.715 900.147 455.108 909.312 462.673 917.376C470.339 925.547 481.081 932.425 497.589 936.472L498.528 932.642L499.467 928.811C484.316 925.096 474.961 918.944 468.425 911.979C461.788 904.904 457.874 896.826 453.785 888.631L450.256 890.392ZM498.528 932.642L497.589 936.472C528.094 943.951 555.413 930.531 574.94 916.111L572.598 912.938L570.255 909.765C551.417 923.676 526.568 935.456 499.467 928.811L498.528 932.642ZM572.598 912.938C569.003 911.315 569.003 911.315 569.003 911.314C569.003 911.314 569.002 911.317 569.001 911.319C568.999 911.323 568.997 911.33 568.992 911.34C568.983 911.36 568.969 911.392 568.949 911.434C568.91 911.52 568.85 911.65 568.769 911.823C568.608 912.169 568.366 912.684 568.046 913.345C567.406 914.668 566.46 916.58 565.24 918.907C562.799 923.567 559.28 929.868 554.964 936.45C550.641 943.043 545.568 949.837 540.035 955.529C534.466 961.257 528.647 965.644 522.867 967.745L524.213 971.452L525.561 975.159C532.921 972.483 539.721 967.168 545.689 961.028C551.691 954.854 557.072 947.617 561.559 940.775C566.054 933.923 569.702 927.386 572.226 922.568C573.49 920.155 574.475 918.168 575.147 916.776C575.484 916.08 575.742 915.533 575.917 915.157C576.005 914.969 576.072 914.823 576.117 914.723C576.141 914.673 576.159 914.634 576.171 914.607C576.177 914.593 576.182 914.583 576.186 914.575C576.187 914.571 576.188 914.568 576.189 914.566C576.19 914.565 576.19 914.563 576.191 914.563C576.191 914.562 576.191 914.561 572.598 912.938Z" fill="#622CA8"/>
</g>
<path d="M402.243 658.587C418.637 654.853 439.271 657.902 448.942 660.214C447.809 689.677 436.215 709.441 426.37 724.424L424.395 727.411C408.016 752.033 378.274 770.802 339.962 769.059C338.528 767.768 337.082 765.415 335.718 762.105C334.246 758.532 332.982 754.129 331.922 749.441C329.803 740.074 328.552 729.801 328.052 723.292C327.584 717.18 329.715 708.168 333.573 699.315C337.302 690.757 342.485 682.708 348.015 677.861L348.551 677.402C353.933 672.908 361.084 669.601 369.55 666.835C376.954 664.417 385.243 662.448 394.074 660.438L397.891 659.574L402.243 658.587ZM364.382 532.16C375.163 532.916 384.749 536.254 393.242 541.381C388.132 541.688 381.532 542.699 375.618 545.209L374.739 545.594C363.407 550.756 345.316 563.403 345.316 586.849C345.316 606.482 359.272 619.937 370.504 626.423L371.582 627.028C379.487 631.35 389.149 633.425 397.966 633.662C406.442 633.889 414.505 632.425 419.582 629.272L420.064 628.961C430.871 621.741 435.475 613.657 438.783 607.288L439.428 606.038H439.429C439.471 605.957 439.513 605.876 439.554 605.796C444.444 619.471 447.218 632.136 448.206 640.785L448.305 641.689C448.828 646.765 449.054 651.591 449.029 656.186C438.925 653.874 418.832 651.021 402.225 654.553L401.369 654.742L397.022 655.727C386.805 658.037 376.997 660.253 368.325 663.086C359.927 665.83 352.444 669.198 346.586 673.915L346.025 674.375C339.64 679.707 333.934 688.615 329.958 697.74C325.991 706.845 323.58 716.552 324.121 723.595C324.63 730.24 325.904 740.71 328.076 750.312C329.161 755.111 330.483 759.751 332.073 763.608C332.824 765.433 333.665 767.153 334.608 768.652C305.02 765.444 283.7 746.908 273.807 728.518L273.32 727.596C259.413 700.715 242.705 646.603 265.73 596.965L266.281 595.793C277.262 572.783 290.917 556.917 307.189 546.786C323.446 536.666 342.474 532.17 364.382 532.16ZM349.259 586.849C349.259 566.434 364.497 554.876 375.339 549.668L376.374 549.184C384.49 545.486 394.539 545.022 399.039 545.274C417.136 558.695 429.724 580.346 437.709 600.857C437.3 601.591 436.893 602.355 436.488 603.137L435.923 604.231C432.726 610.436 428.787 618.068 418.854 625.012L417.874 625.683C413.826 628.387 406.487 629.945 398.073 629.72C389.99 629.503 381.275 627.646 374.157 623.932L373.473 623.568C362.657 617.656 349.259 605.031 349.259 586.849Z" fill="white" stroke="#622CA8" stroke-width="4" stroke-linecap="square"/>
<path d="M364.452 529.772H364.466L364.48 529.773C377.69 530.686 389.161 535.334 399.04 542.322L399.99 543.006C418.525 556.539 431.35 578.323 439.502 598.881L440.276 600.867C446.175 616.245 449.468 630.792 450.58 640.518L450.682 641.445C451.271 647.149 451.491 652.553 451.403 657.678L451.381 658.698C450.594 689.703 438.466 710.367 428.372 725.73L426.384 728.733C409.614 753.943 379.202 773.144 340.114 771.458L339.19 771.414C306.211 769.719 282.452 749.634 271.7 729.645L271.198 728.694C257.149 701.541 240.081 646.579 263.562 595.96L264.124 594.765C275.082 571.803 288.751 555.691 305.143 545.252L305.925 544.759C322.665 534.337 342.183 529.772 364.452 529.772ZM448.962 658.621C439.243 656.34 419.098 653.393 402.678 656.899L401.899 657.07L397.549 658.056C387.945 660.227 378.826 662.29 370.682 664.84L369.066 665.356C360.788 668.061 353.618 671.32 348.086 675.773L347.556 676.208C341.755 681.053 336.393 689.214 332.518 697.856L332.148 698.693C328.37 707.367 326.147 716.353 326.464 722.796L326.503 723.413C326.976 729.564 328.111 739.045 330.015 748.002L330.406 749.786C331.409 754.221 332.603 758.45 333.999 761.998L334.281 762.698C335.64 765.999 337.148 768.554 338.778 770.088L339.312 770.589L340.042 770.622C378.262 772.307 408.107 753.871 424.898 729.44L425.688 728.273C435.877 712.955 449.172 692.342 450.481 660.622L450.549 658.993L448.962 658.621ZM364.367 530.605C342.595 530.616 323.529 535.018 307.147 544.987L306.369 545.466C290.052 555.624 276.39 571.404 265.4 594.04L264.878 595.122C241.107 644.934 257.306 699.314 271.277 727.014L271.94 728.311C281.726 747.226 303.366 766.51 333.578 770.103L337.505 770.57L335.515 767.153C334.879 766.06 334.289 764.851 333.741 763.569L333.509 763.016C332.159 759.738 330.996 755.847 330.005 751.741L329.591 749.969C327.575 741.053 326.338 731.362 325.774 724.755L325.67 723.475C325.174 717.009 327.318 707.956 331.02 699.208L331.382 698.362C335.185 689.633 340.545 681.229 346.447 676.059L347.019 675.569C352.381 671.092 359.29 667.805 367.21 665.099L368.807 664.566C376.305 662.117 384.674 660.128 393.488 658.122L397.291 657.261L397.364 657.244L401.713 656.258C417.866 652.579 437.812 655.273 448.185 657.589L450.583 658.124L450.586 655.667C450.591 651.735 450.415 647.639 450.028 643.37L449.851 641.53C448.962 632.919 446.238 620.094 441.344 606.188L439.827 601.879L437.731 605.937C434.537 612.123 430.314 619.921 420.199 626.986L419.201 627.667C414.698 630.677 407.118 632.239 398.814 632.124L398.009 632.107C389.647 631.883 380.557 629.967 373.048 626.049L372.327 625.663C361.158 619.558 346.87 606.291 346.87 586.85C346.87 565.045 363.158 552.868 374.319 547.507L375.383 547.011C380.79 544.547 386.969 543.435 392.041 543.026L398.347 542.517L392.869 539.353C384.477 534.504 375.048 531.351 364.506 530.61L364.437 530.605H364.367ZM398.052 543.675C393.212 543.547 384.198 544.153 376.52 547.421L375.73 547.768C364.67 552.806 347.705 564.842 347.705 586.85C347.705 605.259 360.823 618.074 371.685 624.347L372.728 624.933C379.995 628.906 388.922 630.919 397.229 631.249L398.03 631.274C406.31 631.496 413.814 630.037 418.311 627.249L418.736 626.976C429.736 619.627 433.976 611.401 437.304 604.944L437.305 604.945L437.321 604.912V604.911C437.885 603.818 438.427 602.768 438.976 601.775L439.422 600.965L439.086 600.103C431.064 579.562 418.389 557.732 400.067 544.098L399.588 543.742L398.993 543.711L398.052 543.675Z" fill="#622CA8" stroke="#622CA8" stroke-width="4" stroke-linecap="square"/>
<path d="M364.382 532.16C375.163 532.916 384.749 536.254 393.242 541.381C388.132 541.688 381.532 542.699 375.618 545.209L374.739 545.594C363.407 550.756 345.316 563.403 345.316 586.849C345.316 606.482 359.272 619.937 370.504 626.423L371.582 627.028C379.487 631.35 389.149 633.425 397.966 633.662C406.442 633.889 414.505 632.425 419.582 629.272L420.064 628.961C430.871 621.741 435.475 613.657 438.783 607.288L439.428 606.038H439.429C439.471 605.957 439.513 605.876 439.554 605.796C444.444 619.471 447.218 632.136 448.206 640.785L448.305 641.689C448.828 646.765 449.054 651.591 449.029 656.186C438.925 653.874 418.832 651.021 402.225 654.553L401.369 654.742L397.022 655.727C386.805 658.037 376.997 660.253 368.325 663.086C359.927 665.83 352.444 669.198 346.586 673.915L346.025 674.375C339.64 679.707 333.934 688.614 329.958 697.74C325.991 706.845 323.58 716.552 324.121 723.595C324.63 730.239 325.904 740.71 328.076 750.312C329.161 755.111 330.483 759.751 332.073 763.608C332.824 765.433 333.665 767.152 334.608 768.652C305.02 765.444 283.7 746.908 273.807 728.518L273.32 727.596C259.413 700.715 242.705 646.603 265.73 596.965L266.281 595.793C277.262 572.783 290.917 556.917 307.189 546.786C323.446 536.666 342.474 532.17 364.382 532.16Z" fill="#622CA8" stroke="#622CA8" stroke-width="4" stroke-linecap="square"/>
<path d="M364.452 529.772H364.466L364.48 529.773C377.69 530.686 389.161 535.334 399.04 542.322L399.99 543.006C418.525 556.539 431.35 578.323 439.502 598.881L440.276 600.867C446.175 616.245 449.468 630.792 450.58 640.518L450.682 641.445C451.271 647.149 451.491 652.553 451.403 657.678L451.381 658.698C450.594 689.703 438.466 710.367 428.372 725.73L426.384 728.733C409.614 753.943 379.202 773.144 340.114 771.458L339.19 771.414C306.211 769.719 282.452 749.634 271.7 729.645L271.198 728.694C257.149 701.541 240.081 646.579 263.562 595.96L264.124 594.765C275.082 571.803 288.751 555.691 305.143 545.252L305.925 544.759C322.665 534.337 342.183 529.772 364.452 529.772ZM448.962 658.621C439.243 656.34 419.098 653.393 402.678 656.899L401.899 657.07L397.549 658.056C387.945 660.227 378.826 662.29 370.682 664.84L369.066 665.356C360.788 668.061 353.618 671.32 348.086 675.773L347.556 676.208C341.755 681.053 336.393 689.214 332.518 697.856L332.148 698.693C328.37 707.367 326.147 716.353 326.464 722.796L326.503 723.413C326.976 729.564 328.111 739.045 330.015 748.002L330.406 749.786C331.409 754.221 332.603 758.45 333.999 761.998L334.281 762.698C335.64 765.999 337.148 768.554 338.778 770.088L339.312 770.589L340.042 770.622C378.262 772.307 408.107 753.871 424.898 729.44L425.688 728.273C435.877 712.955 449.172 692.342 450.481 660.622L450.549 658.993L448.962 658.621ZM364.367 530.605C342.595 530.616 323.529 535.018 307.147 544.987L306.369 545.466C290.052 555.624 276.39 571.404 265.4 594.04L264.878 595.122C241.107 644.934 257.306 699.314 271.277 727.014L271.94 728.311C281.726 747.226 303.366 766.51 333.578 770.103L337.505 770.57L335.515 767.153C334.879 766.06 334.289 764.851 333.741 763.569L333.509 763.016C332.159 759.738 330.996 755.847 330.005 751.741L329.591 749.969C327.575 741.053 326.338 731.362 325.774 724.755L325.67 723.475C325.174 717.009 327.318 707.956 331.02 699.208L331.382 698.362C335.185 689.633 340.545 681.229 346.447 676.059L347.019 675.569C352.381 671.092 359.29 667.805 367.21 665.099L368.807 664.566C376.305 662.117 384.674 660.128 393.488 658.122L397.291 657.261L397.364 657.244L401.713 656.258C417.866 652.579 437.812 655.273 448.185 657.589L450.583 658.124L450.586 655.667C450.591 651.735 450.415 647.639 450.028 643.37L449.851 641.53C448.962 632.919 446.238 620.094 441.344 606.188L439.827 601.879L437.731 605.937C434.537 612.123 430.314 619.921 420.199 626.986L419.201 627.667C414.698 630.677 407.118 632.239 398.814 632.124L398.009 632.107C389.647 631.883 380.557 629.967 373.048 626.049L372.327 625.663C361.158 619.558 346.87 606.291 346.87 586.85C346.87 565.045 363.158 552.868 374.319 547.507L375.383 547.011C380.79 544.547 386.969 543.435 392.041 543.026L398.347 542.517L392.869 539.353C384.477 534.504 375.048 531.351 364.506 530.61L364.437 530.605H364.367ZM398.052 543.675C393.212 543.547 384.198 544.153 376.52 547.421L375.73 547.768C364.67 552.806 347.705 564.842 347.705 586.85C347.705 605.259 360.823 618.074 371.685 624.347L372.728 624.933C379.995 628.906 388.922 630.919 397.229 631.249L398.03 631.274C406.31 631.496 413.814 630.037 418.311 627.249L418.736 626.976C429.736 619.627 433.976 611.401 437.304 604.944L437.305 604.945L437.321 604.912V604.911C437.885 603.818 438.427 602.768 438.976 601.775L439.422 600.965L439.086 600.103C431.064 579.562 418.389 557.732 400.067 544.098L399.588 543.742L398.993 543.711L398.052 543.675Z" fill="#622CA8" stroke="#622CA8" stroke-width="4" stroke-linecap="square"/>
<path d="M659.545 649.517C674.619 646.369 693.569 648.905 702.58 650.862C701.469 675.57 690.851 692.178 681.786 704.832L679.958 707.364C664.869 728.166 637.404 744.098 601.944 742.622C600.668 741.554 599.366 739.614 598.126 736.854C596.778 733.852 595.615 730.142 594.637 726.179C592.684 718.26 591.53 709.571 591.069 704.066C590.645 698.995 592.58 691.432 596.138 683.942C599.57 676.718 604.34 669.928 609.421 665.845L609.914 665.459C614.871 661.662 621.471 658.86 629.305 656.513C636.154 654.461 643.82 652.791 651.989 651.087L655.519 650.354L659.545 649.517ZM624.525 542.278C634.09 542.893 642.631 545.522 650.232 549.564C645.663 549.886 640.016 550.765 634.916 552.749L634.103 553.076C623.681 557.43 606.743 568.208 606.743 588.367C606.743 605.26 619.814 616.741 630.183 622.231L631.177 622.744C638.5 626.415 647.44 628.174 655.591 628.375C663.423 628.568 670.886 627.327 675.6 624.642L676.047 624.379C686.747 617.823 690.908 610.415 694.038 604.846C698.489 616.322 701.013 626.927 701.917 634.171L702.007 634.933C702.476 639.101 702.686 643.068 702.676 646.851C693.284 644.894 674.813 642.516 659.533 645.496L658.739 645.656L654.72 646.492C645.269 648.451 636.196 650.331 628.174 652.735C620.41 655.061 613.476 657.92 608.038 661.935L607.516 662.328C601.575 666.878 596.271 674.474 592.576 682.249C588.898 689.993 586.631 698.308 587.14 704.394C587.613 710.047 588.794 718.951 590.81 727.124C591.816 731.208 593.046 735.169 594.528 738.47C595.129 739.806 595.792 741.079 596.526 742.229C569.385 739.378 549.886 723.747 540.842 708.328L540.395 707.552C527.551 684.787 512.177 639.055 533.383 597.134L533.889 596.144C544.018 576.681 556.614 563.256 571.638 554.677C586.658 546.102 604.254 542.287 624.525 542.278ZM610.687 588.367C610.687 571.315 624.59 561.566 634.66 557.129L635.623 556.716C643.12 553.584 652.41 553.188 656.578 553.402C673.202 564.714 684.783 582.927 692.15 600.215C691.982 600.496 691.815 600.782 691.648 601.071L690.602 602.911C687.657 608.151 684.041 614.584 674.891 620.449L673.988 621.016C670.263 623.298 663.48 624.624 655.689 624.432C648.207 624.248 640.15 622.672 633.576 619.527L632.945 619.218C622.907 614.186 610.687 603.544 610.687 588.367Z" fill="white" stroke="#622CA8" stroke-width="4" stroke-linecap="square"/>
<path d="M624.591 539.889H624.602L624.617 539.89C636.834 540.664 647.448 544.607 656.589 550.537L657.468 551.118C674.621 562.603 686.49 581.091 694.034 598.538L694.752 600.223C700.211 613.274 703.259 625.621 704.289 633.88L704.382 634.665C704.927 639.509 705.131 644.096 705.049 648.447L705.03 649.314C704.301 675.64 693.07 693.185 683.732 706.217L681.893 708.765C666.492 729.997 638.673 746.193 602.933 745.05L601.226 744.983C570.726 743.546 548.737 726.51 538.78 709.534L538.314 708.725C525.316 685.686 509.511 639.03 531.25 596.056L531.77 595.042C541.912 575.553 554.563 561.88 569.73 553.022L570.455 552.604C585.942 543.761 603.994 539.889 624.591 539.889ZM702.56 649.266C693.499 647.337 675.022 644.895 659.944 647.849L659.229 647.994L655.205 648.829C646.321 650.672 637.887 652.422 630.355 654.584L628.861 655.023C621.203 657.317 614.573 660.079 609.46 663.854L608.97 664.223C603.612 668.327 598.657 675.241 595.077 682.564L594.736 683.274C591.242 690.627 589.193 698.232 589.485 703.675L589.522 704.196C589.957 709.41 591.008 717.448 592.767 725.04L593.13 726.552C594.057 730.311 595.16 733.894 596.448 736.898L596.71 737.491C597.953 740.261 599.326 742.4 600.809 743.698L601.332 744.156L602.027 744.185C637.377 745.611 664.97 729.97 680.486 709.266L681.216 708.276C690.599 695.341 702.817 677.969 704.119 651.29L704.2 649.614L702.56 649.266ZM624.514 540.723C604.374 540.731 586.739 544.465 571.589 552.92L570.87 553.326C555.782 561.941 543.153 575.318 532.994 594.508L532.512 595.425C510.545 637.638 525.51 683.728 538.428 707.216L539.042 708.317C548.025 724.238 567.834 740.488 595.5 743.684L599.434 744.138L597.425 740.725C597.029 740.051 596.653 739.335 596.298 738.588L595.947 737.831C594.696 735.046 593.618 731.742 592.701 728.255L592.318 726.751C590.451 719.182 589.307 710.957 588.784 705.35L588.69 704.265C588.228 698.757 590.219 691.06 593.645 683.635L593.981 682.918C597.501 675.507 602.465 668.368 607.931 663.979L608.461 663.562C613.425 659.762 619.819 656.971 627.144 654.677L628.62 654.224C635.555 652.147 643.297 650.461 651.449 648.76L654.967 648.028L655.036 648.015L659.057 647.178C673.906 644.077 692.222 646.315 701.868 648.272L704.238 648.752L704.232 646.334C704.223 643.109 704.056 639.755 703.711 636.264L703.553 634.759C702.738 627.527 700.257 616.786 695.81 605.121L694.314 601.198L692.251 604.854C689.312 610.059 685.375 616.575 676.146 622.483L675.236 623.052C671.067 625.606 664.055 626.931 656.376 626.834L655.63 626.819C647.897 626.629 639.489 625.004 632.541 621.679L631.874 621.353C621.55 616.177 608.298 604.91 608.298 588.367C608.299 569.817 623.403 559.477 633.719 554.933L634.702 554.511C639.288 552.596 644.478 551.643 648.937 551.23L655.78 550.596L649.642 547.505C642.426 543.871 634.398 541.476 625.505 540.788L624.642 540.726L624.577 540.723H624.514ZM655.663 551.808C651.185 551.7 642.851 552.216 635.754 554.986L635.025 555.28C624.781 559.56 609.134 569.758 609.134 588.367C609.134 603.932 621.231 614.787 631.283 620.11L632.248 620.608C638.968 623.977 647.225 625.684 654.91 625.964L655.651 625.987C663.31 626.175 670.252 624.936 674.406 622.573L674.8 622.342C684.331 616.502 688.368 610.014 691.369 604.716L691.958 603.674L691.976 603.641C692.453 602.792 692.913 601.971 693.379 601.19L693.894 600.328L693.499 599.404C686.081 582.068 674.401 563.688 657.552 552.181L657.091 551.866L656.533 551.838L655.663 551.808Z" fill="#622CA8" stroke="#622CA8" stroke-width="4" stroke-linecap="square"/>
<path d="M624.525 542.278C634.09 542.893 642.631 545.522 650.232 549.564C645.663 549.886 640.016 550.765 634.916 552.749L634.103 553.076C623.681 557.43 606.743 568.208 606.743 588.367C606.743 605.26 619.814 616.741 630.183 622.231L631.177 622.744C638.5 626.415 647.44 628.174 655.591 628.375C663.423 628.568 670.886 627.327 675.6 624.642L676.047 624.379C686.747 617.823 690.908 610.415 694.038 604.846C698.489 616.322 701.013 626.927 701.917 634.171L702.007 634.933C702.476 639.101 702.686 643.068 702.676 646.851C693.284 644.894 674.813 642.516 659.533 645.496L658.739 645.656L654.72 646.492C645.269 648.451 636.196 650.331 628.174 652.735C620.41 655.061 613.476 657.92 608.038 661.935L607.516 662.327C601.575 666.878 596.271 674.474 592.576 682.249C588.898 689.993 586.631 698.308 587.14 704.394C587.613 710.047 588.794 718.951 590.81 727.124C591.816 731.208 593.046 735.168 594.528 738.47C595.129 739.806 595.792 741.079 596.526 742.229C569.385 739.378 549.886 723.747 540.842 708.328L540.395 707.552C527.551 684.787 512.177 639.055 533.383 597.134L533.889 596.144C544.018 576.681 556.614 563.256 571.638 554.677C586.658 546.102 604.254 542.287 624.525 542.278Z" fill="#622CA8" stroke="#622CA8" stroke-width="4" stroke-linecap="square"/>
<path d="M624.591 539.889H624.602L624.617 539.89C636.834 540.664 647.448 544.607 656.589 550.537L657.468 551.118C674.621 562.603 686.49 581.091 694.034 598.538L694.752 600.223C700.211 613.274 703.259 625.621 704.289 633.88L704.382 634.665C704.927 639.509 705.131 644.096 705.049 648.447L705.03 649.314C704.301 675.64 693.07 693.185 683.732 706.217L681.893 708.765C666.492 729.997 638.673 746.193 602.933 745.05L601.226 744.983C570.726 743.546 548.737 726.51 538.78 709.534L538.314 708.725C525.316 685.686 509.511 639.03 531.25 596.056L531.77 595.042C541.912 575.553 554.563 561.88 569.73 553.022L570.455 552.604C585.942 543.761 603.994 539.889 624.591 539.889ZM702.56 649.266C693.499 647.337 675.022 644.895 659.944 647.849L659.229 647.994L655.205 648.829C646.321 650.672 637.887 652.422 630.355 654.584L628.861 655.023C621.203 657.317 614.573 660.079 609.46 663.854L608.97 664.223C603.612 668.327 598.657 675.241 595.077 682.564L594.736 683.274C591.242 690.627 589.193 698.232 589.485 703.675L589.522 704.196C589.957 709.41 591.008 717.448 592.767 725.04L593.13 726.552C594.057 730.311 595.16 733.894 596.448 736.898L596.71 737.491C597.953 740.261 599.326 742.4 600.809 743.698L601.332 744.156L602.027 744.185C637.377 745.611 664.97 729.97 680.486 709.266L681.216 708.276C690.599 695.341 702.817 677.969 704.119 651.29L704.2 649.614L702.56 649.266ZM624.514 540.723C604.374 540.731 586.739 544.465 571.589 552.92L570.87 553.326C555.782 561.941 543.153 575.318 532.994 594.508L532.512 595.425C510.545 637.638 525.51 683.728 538.428 707.216L539.042 708.317C548.025 724.238 567.834 740.488 595.5 743.684L599.434 744.138L597.425 740.725C597.029 740.051 596.653 739.335 596.298 738.588L595.947 737.831C594.696 735.046 593.618 731.742 592.701 728.255L592.318 726.751C590.451 719.182 589.307 710.957 588.784 705.35L588.69 704.265C588.228 698.757 590.219 691.06 593.645 683.635L593.981 682.918C597.501 675.507 602.465 668.368 607.931 663.979L608.461 663.562C613.425 659.762 619.819 656.971 627.144 654.677L628.62 654.224C635.555 652.147 643.297 650.461 651.449 648.76L654.967 648.028L655.036 648.015L659.057 647.178C673.906 644.077 692.222 646.315 701.868 648.272L704.238 648.752L704.232 646.334C704.223 643.109 704.056 639.755 703.711 636.264L703.553 634.759C702.738 627.527 700.257 616.786 695.81 605.121L694.314 601.198L692.251 604.854C689.312 610.059 685.375 616.575 676.146 622.483L675.236 623.052C671.067 625.606 664.055 626.931 656.376 626.834L655.63 626.819C647.897 626.629 639.489 625.004 632.541 621.679L631.874 621.353C621.55 616.177 608.298 604.91 608.298 588.367C608.299 569.817 623.403 559.477 633.719 554.933L634.702 554.511C639.288 552.596 644.478 551.643 648.937 551.23L655.78 550.596L649.642 547.505C642.426 543.871 634.398 541.476 625.505 540.788L624.642 540.726L624.577 540.723H624.514ZM655.663 551.808C651.185 551.7 642.851 552.216 635.754 554.986L635.025 555.28C624.781 559.56 609.134 569.758 609.134 588.367C609.134 603.932 621.231 614.787 631.283 620.11L632.248 620.608C638.968 623.977 647.225 625.684 654.91 625.964L655.651 625.987C663.31 626.175 670.252 624.936 674.406 622.573L674.8 622.342C684.331 616.502 688.368 610.014 691.369 604.716L691.958 603.674L691.976 603.641C692.453 602.792 692.913 601.971 693.379 601.19L693.894 600.328L693.499 599.404C686.081 582.068 674.401 563.688 657.552 552.181L657.091 551.866L656.533 551.838L655.663 551.808Z" fill="#622CA8" stroke="#622CA8" stroke-width="4" stroke-linecap="square"/>
</g>
<defs>
<clipPath id="clip0_221_543">
<rect width="977" height="1125" fill="white"/>
</clipPath>
</defs>
</svg>
