<svg width="976" height="1066" viewBox="0 0 976 1066" fill="none" xmlns="http://www.w3.org/2000/svg">
<path d="M356.856 8C359.688 20.4362 363.435 30.2927 369.749 39.3684L370.445 40.3502C377.996 50.8292 393.321 62.446 407.341 71.8739C420.817 80.935 434.267 88.738 441.46 92.68L442.813 93.4165C453.157 98.9981 471.974 106.674 481.457 110.376L483.225 111.062C484.991 111.743 486.936 111.805 488.743 111.24C499.068 108.006 510.008 94.5346 505.048 70.2155L504.801 69.05C501.106 52.3851 496.576 34.4123 489.718 18.6118C507.297 27.8071 526.155 38.0937 543.576 47.2363L548.81 49.9694C575.699 63.9427 679.385 127.507 694.385 137.529C711.294 148.826 764.739 170.69 801.58 217.547L802.446 218.659C821.263 242.969 840.1 270.043 855.332 294.754C870.692 319.676 881.962 341.519 886.166 355.562C886.197 355.669 886.232 355.774 886.268 355.88L886.383 356.192L886.385 356.198C886.387 356.208 886.394 356.225 886.403 356.249C886.422 356.298 886.453 356.376 886.493 356.482C886.574 356.696 886.697 357.026 886.86 357.467C887.185 358.35 887.665 359.677 888.27 361.417C889.478 364.898 891.183 370.027 893.135 376.539C897.042 389.571 901.93 408.104 905.824 430.032C913.518 473.342 917.222 529.235 902.438 582.027L901.72 584.539C886.789 635.714 861.279 687.217 836.319 727.84C823.853 748.13 811.598 765.582 800.981 778.821C790.112 792.373 781.626 800.652 776.738 803.582C773.329 805.625 771.824 809.782 773.135 813.535C774.446 817.287 778.211 819.603 782.15 819.079C801.741 816.474 818.996 813.267 836.649 806.502C853.787 799.935 870.946 790.156 890.952 774.811L892.897 773.308C911.84 758.574 934.444 734.011 952.241 710.891C957.637 703.879 962.651 696.921 967.031 690.328C965.59 724.305 961.817 761.886 952.954 789.573C940.5 828.475 918.651 875.852 880.763 918.401L878.947 920.425C839.814 963.633 777.516 1012.96 717.214 1034.43L715.79 1034.93C655.359 1056.01 561.466 1064.44 458.763 1049.44L456.335 1049.09C354.069 1033.82 241.937 980.967 172.932 933.245L171.309 932.121C148.972 916.547 121.348 890.818 97.275 865.174C73.433 839.777 53.9676 815.41 46.5883 801.828L46.2465 801.189C39.9521 789.276 34.7288 769.713 32.0082 750.233C31.3394 745.444 30.8313 740.726 30.4957 736.204C31.0334 736.749 31.5916 737.296 32.1737 737.843L33.2242 738.811C39.1636 744.167 51.2416 751.956 66.9441 758.53C82.7688 765.156 102.821 770.783 124.791 771.319C128.386 771.407 131.635 769.192 132.867 765.814C134.1 762.435 133.04 758.648 130.233 756.401H130.235L130.233 756.399C130.231 756.398 130.227 756.395 130.222 756.39C130.209 756.38 130.189 756.364 130.16 756.34C130.102 756.294 130.01 756.219 129.887 756.119C129.64 755.916 129.263 755.607 128.767 755.194C127.775 754.367 126.304 753.125 124.428 751.493C120.675 748.229 115.305 743.409 108.906 737.241C96.493 725.277 80.2706 708.303 64.4649 687.821L62.937 685.827C46.6989 664.512 37.0095 647.309 30.3416 629.675C24.0525 613.043 20.3305 595.729 16.5115 573.583L15.746 569.086C7.71055 521.404 5.15431 498.061 11.7891 457.542L12.1126 455.599C15.5374 435.293 24.8332 413.097 35.064 391.553C45.0242 370.579 56.2205 349.592 62.0686 333.532C66.82 320.482 70.7121 301.403 73.6747 283.424C76.7994 296.812 80.821 311.816 85.9288 327.28L86.7366 329.705C95.5503 355.882 107.02 377.482 116.282 392.542C120.919 400.081 125.016 406.006 127.975 410.07C129.455 412.102 130.652 413.672 131.491 414.747C131.91 415.286 132.24 415.701 132.472 415.989C132.587 416.133 132.679 416.244 132.744 416.325C132.777 416.365 132.803 416.396 132.822 416.42C132.832 416.432 132.84 416.442 132.847 416.449C132.85 416.453 132.853 416.456 132.855 416.459C132.856 416.461 132.858 416.464 132.858 416.464C132.865 416.462 133.04 416.319 139.315 411.121L132.86 416.467C135.312 419.428 139.463 420.341 142.93 418.683C146.397 417.024 148.292 413.22 147.527 409.454C144.398 394.047 144.313 370.097 146.68 346.488C149.024 323.111 153.612 301.699 159.038 290.246L159.298 289.71C164.221 279.657 173.532 266.444 184.554 253.597C195.205 241.183 206.997 229.642 217.185 222.037L218.166 221.314C228.64 213.68 237.656 209.486 247.611 204.253C257.255 199.184 267.186 193.405 278.157 183.16L279.222 182.155C288.688 173.12 300.739 154.547 311.553 136.057C321.881 118.397 331.662 99.7839 337.906 87.0974L339.107 84.6413C339.26 84.3248 339.395 83.9994 339.507 83.6672L339.612 83.3309C344.255 67.433 351.499 38.5376 356.856 8Z" fill="#B1F07A" stroke="#1D1E1B" stroke-width="16" stroke-linejoin="round"/>
<circle cx="360.829" cy="553.55" r="92.0498" fill="white" stroke="#1D1E1B" stroke-width="9"/>
<path d="M360.55 457.26C371.356 457.26 381.746 459.036 391.447 462.31C380.286 473.217 373.358 488.437 373.358 505.275C373.359 538.449 400.252 565.343 433.426 565.343C441.741 565.343 449.66 563.652 456.861 560.597C453.378 610.753 411.59 650.359 360.55 650.359C307.227 650.359 264 607.132 264 553.809C264 500.486 307.227 457.26 360.55 457.26Z" fill="#1D1E1B"/>
<circle cx="621.829" cy="553.55" r="92.0498" fill="white" stroke="#1D1E1B" stroke-width="9"/>
<path d="M621.55 457.26C632.356 457.26 642.746 459.036 652.447 462.31C641.286 473.217 634.358 488.437 634.358 505.275C634.359 538.449 661.252 565.343 694.426 565.343C702.741 565.343 710.66 563.652 717.861 560.597C714.378 610.753 672.59 650.359 621.55 650.359C568.227 650.359 525 607.132 525 553.809C525 500.486 568.227 457.26 621.55 457.26Z" fill="#1D1E1B"/>
<mask id="path-6-inside-1_378_1900" fill="white">
<path d="M405.956 810.489C409.879 848.969 449.564 879.557 498.336 880.169C534.162 880.619 565.491 864.774 581.537 841.123C581.774 843.447 581.882 845.799 581.852 848.175C581.329 889.904 538.979 923.206 487.263 922.557C435.546 921.908 394.045 887.555 394.568 845.826C394.729 833.005 398.84 820.979 405.956 810.489Z"/>
</mask>
<path d="M405.956 810.489C409.879 848.969 449.564 879.557 498.336 880.169C534.162 880.619 565.491 864.774 581.537 841.123C581.774 843.447 581.882 845.799 581.852 848.175C581.329 889.904 538.979 923.206 487.263 922.557C435.546 921.908 394.045 887.555 394.568 845.826C394.729 833.005 398.84 820.979 405.956 810.489Z" fill="#1D1E1B"/>
<path d="M405.956 810.489L421.873 808.867L417.412 765.103L392.715 801.507L405.956 810.489ZM498.336 880.169L498.135 896.168L498.136 896.168L498.336 880.169ZM581.537 841.123L597.454 839.5L592.992 795.738L568.296 832.14L581.537 841.123ZM581.852 848.175L597.851 848.376L597.851 848.376L581.852 848.175ZM487.263 922.557L487.062 938.556L487.062 938.556L487.263 922.557ZM394.568 845.826L378.57 845.625L378.57 845.625L394.568 845.826ZM405.956 810.489L390.038 812.112C395.037 861.147 443.978 895.489 498.135 896.168L498.336 880.169L498.537 864.171C455.15 863.626 424.72 836.792 421.873 808.867L405.956 810.489ZM498.336 880.169L498.136 896.168C538.483 896.674 575.265 878.867 594.777 850.106L581.537 841.123L568.296 832.14C555.718 850.68 529.842 864.563 498.537 864.171L498.336 880.169ZM581.537 841.123L565.619 842.746C565.796 844.476 565.876 846.22 565.854 847.975L581.852 848.175L597.851 848.376C597.889 845.378 597.752 842.417 597.454 839.5L581.537 841.123ZM581.852 848.175L565.854 847.975C565.479 877.832 533.721 907.139 487.463 906.558L487.263 922.557L487.062 938.556C544.237 939.273 597.179 901.976 597.851 848.376L581.852 848.175ZM487.263 922.557L487.463 906.558C441.205 905.978 410.193 875.884 410.567 846.026L394.568 845.826L378.57 845.625C377.897 899.225 429.886 937.839 487.062 938.556L487.263 922.557ZM394.568 845.826L410.567 846.027C410.685 836.6 413.688 827.592 419.197 819.472L405.956 810.489L392.715 801.507C383.991 814.367 378.773 829.409 378.57 845.625L394.568 845.826Z" fill="#1D1E1B" mask="url(#path-6-inside-1_378_1900)"/>
</svg>
