<svg width="960" height="1050" viewBox="0 0 960 1050" fill="none" xmlns="http://www.w3.org/2000/svg">
<path d="M348.856 0C351.688 12.4362 355.435 22.2927 361.749 31.3684L362.445 32.3502C369.996 42.8292 385.321 54.446 399.341 63.8739C412.817 72.935 426.267 80.738 433.46 84.68L434.813 85.4165C445.157 90.9981 463.974 98.6739 473.457 102.376L475.225 103.062C476.991 103.743 478.936 103.805 480.743 103.24C491.068 100.006 502.008 86.5346 497.048 62.2155L496.801 61.05C493.106 44.3851 488.576 26.4123 481.718 10.6118C499.297 19.8071 518.155 30.0937 535.576 39.2363L540.81 41.9694C567.699 55.9427 671.385 119.507 686.385 129.529C703.294 140.826 756.739 162.69 793.58 209.547L794.446 210.659C813.263 234.969 832.1 262.044 847.332 286.754C862.692 311.676 873.962 333.519 878.166 347.562C878.197 347.669 878.232 347.774 878.268 347.88L878.383 348.192L878.385 348.198C878.387 348.208 878.394 348.225 878.403 348.249C878.422 348.298 878.453 348.376 878.493 348.482C878.574 348.696 878.697 349.026 878.86 349.467C879.185 350.35 879.665 351.677 880.27 353.417C881.478 356.898 883.183 362.027 885.135 368.539C889.042 381.571 893.93 400.104 897.824 422.032C905.518 465.342 909.222 521.235 894.438 574.027L893.72 576.539C878.789 627.714 853.279 679.217 828.319 719.84C815.853 740.13 803.598 757.582 792.981 770.821C782.112 784.373 773.626 792.652 768.738 795.582C765.329 797.625 763.824 801.782 765.135 805.535C766.446 809.287 770.211 811.603 774.15 811.079C793.741 808.474 810.996 805.267 828.649 798.502C845.787 791.935 862.946 782.156 882.952 766.811L884.897 765.308C903.84 750.574 926.444 726.011 944.241 702.891C949.637 695.879 954.651 688.921 959.031 682.328C957.59 716.305 953.817 753.886 944.954 781.573C932.5 820.475 910.651 867.852 872.763 910.402L870.947 912.425C831.814 955.633 769.516 1004.96 709.214 1026.43L707.79 1026.93C647.359 1048.01 553.466 1056.44 450.763 1041.44L448.335 1041.09C346.069 1025.82 233.937 972.967 164.932 925.245L163.309 924.121C140.972 908.547 113.348 882.818 89.275 857.174C65.433 831.777 45.9676 807.41 38.5883 793.828L38.2465 793.189C31.9521 781.276 26.7288 761.713 24.0082 742.233C23.3394 737.444 22.8313 732.726 22.4957 728.204C23.0334 728.749 23.5916 729.296 24.1737 729.843L25.2242 730.811C31.1636 736.167 43.2416 743.956 58.9441 750.53C74.7688 757.156 94.8209 762.783 116.791 763.319C120.386 763.407 123.635 761.192 124.867 757.814C126.1 754.435 125.04 750.648 122.233 748.401H122.235L122.233 748.399C122.231 748.398 122.227 748.395 122.222 748.39C122.209 748.38 122.189 748.364 122.16 748.34C122.102 748.294 122.01 748.219 121.887 748.118C121.64 747.916 121.263 747.607 120.767 747.194C119.775 746.367 118.304 745.125 116.428 743.493C112.675 740.229 107.305 735.409 100.906 729.241C88.493 717.277 72.2706 700.303 56.4649 679.821L54.937 677.827C38.6989 656.512 29.0095 639.309 22.3416 621.675C16.0525 605.043 12.3305 587.729 8.51146 565.583L7.74602 561.086C-0.28945 513.404 -2.84569 490.061 3.78913 449.542L4.11259 447.599C7.53741 427.293 16.8332 405.097 27.064 383.553C37.0242 362.579 48.2205 341.592 54.0686 325.532C58.82 312.482 62.7121 293.403 65.6747 275.424C68.7994 288.812 72.821 303.816 77.9288 319.28L78.7366 321.705C87.5503 347.882 99.0197 369.482 108.282 384.542C112.919 392.081 117.016 398.006 119.975 402.07C121.455 404.102 122.652 405.672 123.491 406.747C123.91 407.286 124.24 407.701 124.472 407.989C124.587 408.133 124.679 408.244 124.744 408.325C124.777 408.365 124.803 408.396 124.822 408.42C124.832 408.432 124.84 408.442 124.847 408.449C124.85 408.453 124.853 408.456 124.855 408.459C124.856 408.461 124.858 408.464 124.858 408.464C124.865 408.462 125.04 408.319 131.315 403.121L124.86 408.467C127.312 411.428 131.463 412.341 134.93 410.683C138.397 409.024 140.292 405.22 139.527 401.454C136.398 386.047 136.313 362.097 138.68 338.488C141.024 315.111 145.612 293.699 151.038 282.246L151.298 281.71C156.221 271.657 165.532 258.444 176.554 245.597C187.205 233.183 198.997 221.642 209.185 214.037L210.166 213.314C220.64 205.68 229.656 201.486 239.611 196.253C249.255 191.184 259.186 185.405 270.157 175.16L271.222 174.155C280.688 165.12 292.739 146.547 303.553 128.057C313.881 110.397 323.662 91.7839 329.906 79.0974L331.107 76.6413C331.26 76.3248 331.395 75.9994 331.507 75.6672L331.612 75.3309C336.255 59.433 343.499 30.5376 348.856 0Z" fill="#622CA8"/>
<circle cx="636.621" cy="542.352" r="131" fill="white"/>
<circle cx="636.621" cy="542.352" r="99.2424" fill="#622CA8"/>
<circle cx="700.136" cy="500.387" r="42.5325" fill="white"/>
<circle cx="323.621" cy="542.352" r="131" fill="white"/>
<circle cx="323.621" cy="542.352" r="99.2424" fill="#622CA8"/>
<circle cx="387.136" cy="500.387" r="42.5325" fill="white"/>
<path d="M397.956 802.489C401.879 840.969 441.564 871.557 490.336 872.169C526.162 872.619 557.491 856.774 573.537 833.123C573.774 835.447 573.882 837.799 573.852 840.175C573.329 881.904 530.979 915.206 479.263 914.557C427.546 913.908 386.045 879.555 386.568 837.826C386.729 825.005 390.84 812.979 397.956 802.489Z" fill="white"/>
</svg>
